<svg xmlns="http://www.w3.org/2000/svg" width="286" height="375" viewBox="0 0 286 375" fill="none"><g clip-path="url(#clip0_16456_15981)"><path d="M282.175 303.39C283.485 303.894 284.765 304.476 286 305.147C283.09 300.23 279.493 295.723 275.347 291.79C275.019 291.481 274.672 291.171 274.31 290.884C257.358 270.938 238.59 274.31 238.59 274.31C238.59 274.31 243.496 261.423 239.209 232.03C234.929 202.633 208.433 179.665 199.881 171.781C191.328 163.898 178.813 147.029 171.922 135.631C165.037 124.236 161.183 104.805 160.724 101.294C160.257 97.7759 161.325 85.6537 161.325 85.6537C161.325 85.6537 160.575 77.6357 177.403 63.5137C207.646 37.4113 203.802 35.3592 203.802 35.3592C211.963 26.0391 201.216 21.1999 201.216 21.1999C201.216 21.1999 166.593 2.89539 160.216 2.48871C153.836 2.08948 146.127 12.8237 146.127 12.8237C146.127 12.8237 134.922 8.60389 130.534 7.64501C130.116 7.5592 129.698 7.48458 129.265 7.43607C127.328 7.20102 125.243 7.29429 122.933 7.16744C120.369 7.03312 117.526 6.61898 114.299 5.17506C111.78 4.05575 107.731 3.83935 103.619 4.0147C102.493 4.06321 101.358 4.14156 100.25 4.23857C99.9254 4.26468 99.6082 4.2908 99.2911 4.32811C93.9925 4.83927 89.5485 5.72352 89.5485 5.72352C80.5112 -4.54432 68.7836 2.14545 68.7836 2.14545C68.7836 2.14545 50.403 10.9283 37.3284 10.988C24.2463 11.0477 23.6455 15.5698 23.6194 30.3186C23.5933 45.0599 34.0224 69.6363 39.1455 70.64C44.2612 71.6511 50.8918 59.0588 50.8918 59.0588C50.8918 59.0588 52.9104 78.0984 54.7127 95.1754C54.944 97.3431 55.2239 99.3205 55.5448 101.108L53.9851 104.578C32.7836 154.342 34.444 193.432 32.653 200.54C30.8582 207.648 26.7649 235.728 26.944 258.009C27.1194 280.299 25.0187 284.366 25.0187 284.366C16.8433 309.987 0.182826 306.927 -1.01436e-05 324.221C-0.175383 341.507 23.5597 339.939 36.8284 337.66C50.1007 335.38 53.3657 318.031 53.8806 314.885C54.3993 311.748 55.8843 294.995 55.8843 294.995L64.6119 238.399C67.4664 265.527 84.5597 287.085 84.5597 287.085C84.5597 287.085 77.459 295.152 78.2687 303.894C79.4366 315.139 103.142 317.008 103.142 317.008C102.272 323.139 101.198 320.135 98.0784 331.116C92.4366 349.26 109.418 349.595 109.418 349.595C119.246 355.852 125.888 351.379 125.888 351.379C125.888 351.379 128.5 355.468 139.694 351.263C150.892 347.058 142.948 330.589 142.265 325.858C141.575 321.128 144.474 305.994 144.474 305.994C148.552 308.431 154.668 308.662 159.31 309.024C154.996 311.751 151.978 314.512 151.31 319.885C150.243 328.396 155.433 337.705 163.709 339.951C168.563 341.275 173.821 340.167 178.31 337.906C182.791 335.638 186.634 332.298 190.347 328.907C192.623 326.836 194.903 324.709 197.612 323.236C200.164 321.851 203.004 321.098 205.821 320.4C212.444 318.755 222.067 318.132 226.713 312.434C229.541 308.953 231.351 301.883 234.522 299.211C237.91 296.357 241.388 300.987 242.642 305.017C243.735 308.554 243.519 312.36 243.101 316.038C242.772 318.9 242.325 321.751 241.888 324.601C239.541 331.265 238.265 338.305 238.149 345.368C238.918 344.062 239.683 342.753 240.451 341.447C240.709 347.607 242.202 353.756 245.851 358.669C248.754 362.576 252.866 364.594 256.313 367.844C259.116 370.489 260.642 373.235 264.325 375C264.06 367.34 265.862 359.427 268.929 352.427C269.705 350.64 270.623 348.823 271.69 347.002C271.705 346.98 271.716 346.958 271.731 346.931C272.31 348.017 273.022 349.036 273.862 349.939C273.261 347.405 274.75 344.913 275.866 342.559C276.791 340.607 277.474 338.544 277.933 336.436C283.187 326.911 287.25 315.975 282.168 303.386L282.175 303.39Z" fill="#605A55"></path><path d="M67.743 130.829C67.743 130.829 67.0154 161.7 73.09 162.215C79.1684 162.73 105.247 163.994 105.247 163.994C105.247 163.994 115.206 148.604 115.206 140.272C115.206 140.272 102.788 142.533 91.1572 137.146C91.1572 137.146 70.6199 138.407 67.7393 130.825L67.743 130.829Z" fill="#9E6766"></path><path d="M121.183 138.161C120.608 138.161 120.06 137.825 119.817 137.261C119.492 136.508 119.839 135.631 120.593 135.306C132.951 129.963 149.709 113.64 155.339 103.686C156.78 101.137 158.343 98.0854 158.985 94.7909C159.306 93.1417 159.399 91.4553 159.496 89.6719C159.638 87.075 159.787 84.3924 160.694 81.7919C162.071 77.8407 164.88 74.7813 168.134 71.4755C174.123 65.4014 180.362 59.3907 186.679 53.6188C192.88 47.9513 199.739 41.0974 203.608 33.2323C203.974 32.4936 204.862 32.1914 205.601 32.5533C206.339 32.9152 206.642 33.8069 206.28 34.5456C202.194 42.8547 195.093 49.9623 188.686 55.8163C182.407 61.5547 176.209 67.5281 170.257 73.5649C167.257 76.6095 164.679 79.404 163.507 82.7694C162.739 84.9745 162.608 87.3362 162.47 89.836C162.369 91.6456 162.269 93.5148 161.907 95.3654C161.175 99.1002 159.399 102.559 157.929 105.152C152.074 115.502 134.642 132.478 121.772 138.037C121.578 138.119 121.38 138.161 121.183 138.161Z" fill="#262626"></path><path d="M75.5375 135.907L74.9442 142.156C70.4368 140.806 67.7129 138.746 67.7129 138.746L68.3211 132.538C70.5301 134.049 73.0263 135.135 75.5375 135.907Z" fill="#845556"></path><path d="M114.609 141.086V145.925C111.597 146.391 108.627 146.436 105.84 146.235L105.855 140.836C110.769 141.202 114.609 141.086 114.609 141.086Z" fill="#845556"></path><path d="M74.6794 164.991C71.6085 162.823 68.2018 157.495 67.6645 154.025C66.5936 147.111 66.0525 138.209 66.2578 130.788L69.2316 130.87C69.0339 138.123 69.56 146.82 70.6048 153.57C71.0189 156.241 73.9966 160.864 76.3958 162.562L74.6794 164.991Z" fill="#262626"></path><path d="M126.657 101.858C122.985 96.2685 118.347 91.1943 115.992 84.9298C111.261 72.3152 116.824 58.4842 121.007 45.6792C121.477 44.2465 121.94 42.7354 122.384 41.1721C123.093 40.2953 123.832 39.4447 124.593 38.6164C125.231 37.9261 125.936 37.221 126.847 36.9934C126.552 36.1725 125.504 35.9114 124.634 35.9711C124.313 35.9934 123.996 36.0494 123.683 36.1203C123.75 35.8218 123.821 35.5233 123.884 35.2211C125.28 33.1541 126.321 30.8483 126.925 28.4306C126.298 29.3111 125.556 30.1096 124.735 30.811C126.115 22.4609 126.168 13.7974 122.94 7.16364C120.377 7.02932 117.533 6.61518 114.306 5.17126C111.787 4.05195 107.739 3.83555 103.627 4.01091C101.768 6.91366 99.5446 11.029 98.9401 12.1856C94.3729 21.0506 92.664 31.3446 91.9364 41.6273C91.4774 40.7431 91.0558 39.8401 90.6976 38.9111C90.1901 42.1161 90.5035 45.4404 91.5744 48.4999C91.5595 48.8767 91.5446 49.2536 91.5334 49.6304C90.7722 49.2909 89.9961 48.9887 89.1976 48.7536C90.1752 49.9737 90.9252 51.3691 91.4364 52.8503C91.4102 53.8316 91.3879 54.8054 91.3655 55.7754C91.2237 62.0735 91.0073 71.0802 88.2386 76.7365C84.2498 84.9224 75.4737 86.4073 69.3095 93.1158C61.4998 101.619 59.6229 115.058 64.8132 125.378C65.8879 127.505 67.2423 129.523 69.067 131.06C70.6267 132.378 72.4886 133.307 74.4326 133.941C81.8058 136.359 89.5073 136.221 96.8431 138.75C100.041 139.851 103.552 140.112 106.895 140.642C115.082 141.944 122.037 134.892 126.929 128.188C128.623 125.871 130.283 123.468 131.134 120.729C133.119 114.345 130.324 107.447 126.653 101.85L126.657 101.858Z" fill="#EFE8DA"></path><path d="M101.008 167.446L99.3584 164.968C103.929 161.924 107.758 157.443 109.858 152.678C111.508 148.943 113.664 143.343 115.138 139.351L117.929 140.381C116.444 144.418 114.258 150.081 112.582 153.88C110.258 159.148 106.041 164.091 101.011 167.446H101.008Z" fill="#262626"></path><path d="M86.6531 76.1506C86.5113 76.1506 86.3695 76.132 86.2278 76.0909C85.4143 75.8559 84.9479 75.0052 85.183 74.1955C86.5001 69.6549 85.4591 64.562 82.4703 60.9018C81.7166 59.9803 80.974 59.3049 80.1979 58.846C78.4554 57.8125 76.0076 57.6148 73.4964 58.3087C71.0636 58.9803 68.7725 60.3422 66.5599 61.6592C65.8322 62.092 64.8957 61.8532 64.4628 61.1257C64.03 60.3981 64.2688 59.4579 64.9964 59.0288C67.3845 57.6073 69.8546 56.1373 72.683 55.3575C76.0487 54.4322 79.2688 54.7344 81.7576 56.2119C82.8434 56.8574 83.8509 57.7566 84.836 58.9617C88.4554 63.3904 89.7128 69.5541 88.1196 75.0462C87.9255 75.7178 87.3136 76.1506 86.6494 76.1506H86.6531Z" fill="#262626"></path><path d="M71.8584 57.0403C71.8584 57.0403 78.7689 55.0068 82.2204 58.6707C85.6681 62.3346 86.8472 69.2371 86.8472 69.2371C84.8622 72.3114 81.0524 74.0986 77.4181 73.6621C73.7838 73.2255 70.5077 70.584 69.3062 67.129C68.1047 63.6703 69.045 59.5662 71.6271 56.9731L71.8584 57.0403Z" fill="#EFE8DA"></path><path d="M71.8581 57.0402L76.72 55.9209L82.1454 57.7118L85.6715 62.3346L87.6566 70.4906L86.0932 69.9757C86.0932 69.9757 78.5186 73.0128 74.2462 68.9609C69.4327 64.3941 71.8581 57.0439 71.8581 57.0439V57.0402Z" fill="#262626"></path><path d="M82.847 63.5097C82.847 62.4016 81.9477 61.5024 80.8395 61.5024C79.7313 61.5024 78.832 62.4016 78.832 63.5097C78.832 64.6179 79.7313 65.5171 80.8395 65.5171C81.9477 65.5171 82.847 64.6179 82.847 63.5097Z" fill="#EFE8DA"></path><path d="M82.22 58.6706C85.6678 62.3344 86.8469 69.2369 86.8469 69.2369C84.8618 72.3113 81.0521 74.0984 77.4178 73.6619C73.7834 73.2254 70.5073 70.5838 69.3058 67.1288C68.6379 65.2073 68.6305 63.0881 69.2013 61.1368C69.9999 58.3945 72.5707 56.5327 75.4252 56.4543C77.6827 56.3909 80.4402 56.7826 82.22 58.6706Z" stroke="#262626" stroke-width="8.2" stroke-miterlimit="10"></path><path d="M122.971 83.9821C122.168 83.9821 121.497 83.359 121.444 82.5457C121.071 76.5685 123.769 70.5578 128.478 66.8603C129.758 65.853 130.993 65.1664 132.247 64.7598C135.12 63.8233 138.478 64.2486 141.694 65.9612C144.411 67.4088 146.605 69.4795 148.724 71.4831C149.34 72.0651 149.366 73.0315 148.784 73.6471C148.202 74.2627 147.235 74.2889 146.62 73.7068C144.646 71.8413 142.605 69.9161 140.254 68.6624C137.814 67.364 135.239 67.0021 133.194 67.67C132.288 67.9647 131.362 68.4871 130.366 69.2706C126.437 72.3562 124.187 77.3707 124.497 82.3591C124.549 83.2023 123.907 83.9299 123.064 83.9821C123.03 83.9821 123 83.9821 122.967 83.9821H122.971Z" fill="#262626"></path><path d="M142.444 67.7895C144.497 71.043 144.519 75.4717 142.493 78.7438C140.467 82.016 136.497 83.9748 132.668 83.5867C128.84 83.1987 125.34 80.49 124.008 76.8783C124.008 76.8783 125.993 67.7373 131.743 66.8828C137.493 66.0284 142.448 67.7895 142.448 67.7895H142.444Z" fill="#EFE8DA"></path><path d="M139.799 67.1178C141.672 67.476 143.224 68.864 143.683 70.7146C144.355 73.4084 143.959 76.3783 142.493 78.7438C140.467 82.0159 136.497 83.9747 132.668 83.5867C128.84 83.1986 125.34 80.4899 124.008 76.8782C124.008 76.8782 125.993 67.7372 131.743 66.8828C134.896 66.4127 137.81 66.7335 139.803 67.1141L139.799 67.1178Z" stroke="#262626" stroke-width="8.2" stroke-miterlimit="10"></path><path d="M143.284 68.9498L138.765 66.2112H132.716L127.638 69.6885L122.937 77.229H124.679C124.679 77.229 131.287 82.7957 136.925 80.1392C143.28 77.1431 143.28 68.946 143.28 68.946L143.284 68.9498Z" fill="#262626"></path><path d="M132.545 72.1286C132.545 71.0205 131.646 70.1213 130.538 70.1213C129.43 70.1213 128.53 71.0205 128.53 72.1286C128.53 73.2368 129.43 74.1359 130.538 74.1359C131.646 74.1359 132.545 73.2368 132.545 72.1286Z" fill="#EFE8DA"></path><path d="M97.8397 115.774C99.3247 115.767 100.828 115.801 102.265 116.155C104.974 116.819 106.567 119.494 106.552 122.136C106.537 125.128 101.743 126.994 98.8807 128.285C96.0225 129.576 93.127 131.844 90.7165 133.784C88.5225 131.598 86.6121 129.896 83.9218 128.277C81.2315 126.658 78.5934 124.651 77.4479 121.837C76.4367 119.364 76.765 116.442 78.3024 114.222C78.4218 114.051 78.6643 113.845 78.9852 113.644C80.2949 112.823 83.0412 113.193 84.4777 113.797C87.0673 114.886 92.5598 115.801 97.8434 115.771L97.8397 115.774Z" fill="#262626"></path><path d="M69.1266 258.009C69.1266 258.009 68.9102 247.234 71.5408 242.738C71.5408 242.738 69.7273 237.082 73.3505 229.836C73.3505 229.836 73.1453 221.117 81.5557 216.162L82.8953 215.218C82.8953 215.218 87.8729 223.102 92.1005 222.009V220.315C92.1005 220.315 95.9288 222.833 97.3094 226.34C97.3094 226.34 102.328 228.057 105.283 231.795C108.239 235.53 109.302 236.048 109.302 236.048L112.268 239.138C112.268 239.138 112.071 282.269 105.324 298.245L104.597 300.633C104.597 300.633 80.4736 295.339 69.1191 258.009H69.1266Z" fill="#EFE8DA"></path><path d="M144.478 307.524C144.37 307.524 144.258 307.513 144.149 307.487C143.325 307.304 142.802 306.491 142.981 305.662C143.045 305.371 149.336 276.541 150.795 261.446C151.399 255.204 153.929 247.458 156.612 239.253C160.69 226.781 164.907 213.886 163.217 204.316C163.071 203.484 163.627 202.689 164.459 202.544C165.291 202.398 166.086 202.954 166.231 203.786C168.056 214.114 163.717 227.377 159.523 240.209C156.896 248.245 154.414 255.838 153.843 261.74C152.37 277.019 146.037 306.028 145.974 306.319C145.817 307.035 145.183 307.524 144.481 307.524H144.478Z" fill="#262626"></path><path d="M105.84 146.235L105.821 155.779C105.821 155.779 106.549 162.144 101.373 167.151C94.03 174.867 83.8434 170.621 77.8696 167.151C71.8957 163.681 73.6307 156.163 73.6307 156.163L74.9479 142.157L75.5412 135.907L75.5561 135.732C79.6046 137.851 91.1643 137.149 91.1643 137.149C93.0897 139.146 105.858 140.769 105.858 140.769V140.836L105.843 146.235H105.84Z" fill="#EF8E8E"></path><path d="M90.7236 142.772C91.1154 141.91 92.802 142.582 92.4139 143.444C90.4512 147.779 88.4699 157.872 89.2348 162.599C89.3878 163.543 87.5706 163.632 87.4177 162.692C86.608 157.7 88.6527 147.35 90.7236 142.772Z" fill="#ED9F9F"></path><path d="M89.5823 139.355C88.4629 143.339 87.6345 147.35 87.1345 151.439C86.7875 154.495 86.5972 157.592 87.0002 160.696C87.1382 161.73 87.3435 162.759 87.6868 163.771C87.1905 161.73 87.1793 159.666 87.3136 157.637C87.6196 153.577 88.5562 149.607 89.7017 145.701C90.2838 143.75 90.9293 141.798 91.6532 139.907C92.0188 138.806 89.9629 138.239 89.5823 139.351V139.355Z" fill="#BC6161"></path><path d="M105.855 140.836L105.84 146.235C96.8697 145.585 89.8548 142.373 89.8548 142.373C83.9555 143.959 78.7988 143.317 74.9443 142.156L75.5376 135.907C83.0861 138.25 90.7205 137.799 90.7205 137.799C95.019 139.653 100.967 140.478 105.855 140.836Z" fill="#BC6161"></path><path d="M104.47 318.59L103.089 318.534C102.459 318.508 87.5669 317.833 79.7684 310.128C76.246 306.651 75.649 301.547 78.0334 295.368C79.7349 290.958 82.358 287.54 82.4699 287.399C82.9849 286.731 83.9475 286.608 84.6154 287.123C85.2834 287.638 85.4065 288.6 84.8916 289.268C84.7983 289.391 75.5072 301.61 81.9177 307.949C87.6005 313.565 98.0893 315.023 101.836 315.374L103.854 301.211C103.918 300.901 110.097 270.243 110.72 260.076C111.347 249.868 110.724 221.99 110.72 221.71C110.701 220.863 111.369 220.165 112.216 220.143C113.074 220.135 113.761 220.792 113.783 221.639C113.809 222.788 114.414 249.928 113.783 260.263C113.153 270.542 107.231 299.984 106.869 301.774L104.474 318.59H104.47Z" fill="#262626"></path><path d="M110.489 142.571C109.545 142.571 108.623 142.518 107.75 142.448C101.806 141.974 95.9961 140.638 90.4849 138.485C80.1603 139.213 72.511 137.355 67.7461 132.956C63.2237 128.781 61.6677 123.139 61.1565 119.143C60.5035 114.028 61.1267 108.913 61.6789 104.398C61.7759 103.585 62.5147 103.003 63.3356 103.104C64.1528 103.204 64.7311 103.943 64.6341 104.76C64.1043 109.099 63.5073 114.021 64.1117 118.77C64.5595 122.277 65.9028 127.206 69.7685 130.777C73.8916 134.586 81.0968 136.217 90.6043 135.5L90.9476 135.474L91.2647 135.601C96.5968 137.72 102.224 139.03 107.989 139.489C110.239 139.668 112.843 139.739 115.067 138.888C116.175 138.466 117.298 137.78 118.597 136.735C123.88 132.482 127.365 126.232 130.44 120.718C130.839 120.002 131.746 119.74 132.462 120.143C133.179 120.543 133.436 121.449 133.037 122.166C129.832 127.915 126.198 134.433 120.462 139.052C118.914 140.298 117.537 141.13 116.127 141.668C114.287 142.369 112.343 142.574 110.489 142.574V142.571Z" fill="#262626"></path><path d="M69.1422 256.752C68.3175 256.752 67.6384 256.099 67.6123 255.271C67.4145 249.17 69.2242 243.044 72.7019 238.03C73.1832 237.336 74.1347 237.16 74.8325 237.645C75.5265 238.127 75.6981 239.082 75.2168 239.776C72.1123 244.257 70.4966 249.726 70.672 255.174C70.6981 256.021 70.0377 256.726 69.1907 256.752C69.1757 256.752 69.1571 256.752 69.1422 256.752Z" fill="#262626"></path><path d="M70.9477 244.272C70.2164 244.272 69.5671 243.745 69.4403 242.999C68.5783 237.94 69.9328 232.493 73.0671 228.426C73.582 227.754 74.5447 227.631 75.2126 228.146C75.8806 228.661 76.0074 229.623 75.4925 230.291C72.8731 233.694 71.7388 238.25 72.4589 242.481C72.6007 243.316 72.041 244.104 71.2089 244.245C71.1231 244.26 71.0335 244.268 70.9514 244.268L70.9477 244.272Z" fill="#262626"></path><path d="M72.3021 231.698C72.1268 231.698 71.9514 231.668 71.776 231.605C70.9812 231.314 70.5745 230.437 70.8656 229.642C72.8357 224.258 76.1566 216.763 82.235 213.838C82.9924 213.472 83.9103 213.789 84.2797 214.554C84.6454 215.315 84.3245 216.229 83.5633 216.598C79.7536 218.43 76.5409 223.042 73.7387 230.698C73.5111 231.317 72.9253 231.705 72.3021 231.705V231.698Z" fill="#262626"></path><path d="M109.221 349.961C108.788 349.961 108.355 349.778 108.053 349.424C105.694 346.652 104.982 342.648 106.232 339.231C106.523 338.436 107.403 338.029 108.194 338.32C108.989 338.611 109.396 339.492 109.105 340.283C108.239 342.648 108.754 345.525 110.381 347.443C110.93 348.088 110.851 349.051 110.206 349.599C109.918 349.845 109.564 349.965 109.217 349.965L109.221 349.961Z" fill="#262626"></path><path d="M125.967 352.498C125.683 352.498 125.399 352.42 125.142 352.256C124.429 351.8 124.22 350.853 124.675 350.14C126.239 347.696 126.937 344.76 126.634 341.872C126.549 341.033 127.157 340.279 127.996 340.189C128.851 340.1 129.59 340.712 129.679 341.551C130.052 345.126 129.19 348.76 127.254 351.785C126.963 352.244 126.467 352.491 125.963 352.491L125.967 352.498Z" fill="#262626"></path><path d="M2.07466 332.977C1.40675 332.977 0.791082 332.537 0.600783 331.858C-0.791008 326.903 1.71272 321.195 6.29854 318.859C7.05228 318.475 7.97392 318.777 8.35825 319.527C8.74257 320.28 8.44034 321.202 7.69034 321.586C4.41422 323.254 2.55601 327.493 3.55228 331.03C3.77989 331.843 3.30601 332.686 2.49257 332.917C2.35451 332.955 2.21645 332.973 2.0784 332.973L2.07466 332.977Z" fill="#262626"></path><path d="M16.2087 339.331C15.7199 339.331 15.2423 339.1 14.9475 338.667C11.9811 334.358 12.0669 328.16 15.1452 323.933C15.6415 323.25 16.6005 323.097 17.2833 323.597C17.9661 324.094 18.1191 325.053 17.6191 325.735C15.2796 328.948 15.2161 333.66 17.4699 336.936C17.9475 337.634 17.7721 338.585 17.0781 339.063C16.8131 339.245 16.5109 339.331 16.2124 339.331H16.2087Z" fill="#262626"></path><path d="M31.5484 339.141C31.3805 339.141 31.2089 339.115 31.0409 339.055C30.2424 338.775 29.8245 337.902 30.1044 337.104C31.2984 333.712 31.0335 329.776 29.3991 326.575C29.0148 325.821 29.3133 324.899 30.0671 324.515C30.8245 324.131 31.7424 324.429 32.1268 325.183C34.1342 329.119 34.4589 333.955 32.9924 338.122C32.7723 338.753 32.179 339.145 31.5484 339.145V339.141Z" fill="#262626"></path><path d="M159.373 310.692C158.876 310.692 158.388 310.449 158.093 310.005C157.626 309.3 157.821 308.349 158.526 307.882C166.649 302.521 175.335 297.935 184.347 294.253C185.13 293.928 186.022 294.309 186.343 295.092C186.664 295.876 186.287 296.768 185.503 297.088C176.675 300.696 168.168 305.188 160.209 310.438C159.947 310.61 159.656 310.692 159.365 310.692H159.373Z" fill="#262626"></path><path d="M63.9961 240.037C63.1864 240.037 62.5073 239.399 62.47 238.578C62.0632 230.09 62.5446 221.531 63.8991 213.14C64.0334 212.304 64.8207 211.744 65.6565 211.871C66.4924 212.006 67.0595 212.793 66.9252 213.625C65.6006 221.807 65.1304 230.153 65.5297 238.429C65.5707 239.272 64.9177 239.988 64.0744 240.029C64.0483 240.029 64.0259 240.029 63.9998 240.029L63.9961 240.037Z" fill="#262626"></path><path d="M83.6788 289.865C83.2348 289.865 82.7945 289.671 82.4922 289.302C75.2833 280.452 70.5669 269.721 67.6415 255.532C67.4698 254.704 68.0034 253.894 68.8318 253.722C69.6564 253.551 70.4699 254.084 70.6415 254.912C73.4624 268.602 77.981 278.914 84.8654 287.365C85.399 288.022 85.3019 288.984 84.6452 289.518C84.3616 289.749 84.0184 289.861 83.6788 289.861V289.865Z" fill="#262626"></path><path d="M176.713 56.6036C173.885 56.6036 170.918 55.1187 168.881 52.6002C166.874 50.1228 165.918 47.0969 165.075 44.4255L155.829 15.0957C155.583 14.3122 156.015 13.4765 156.799 13.2302C157.583 12.984 158.418 13.4168 158.665 14.2003L167.911 43.53C168.709 46.0634 169.538 48.6863 171.191 50.7235C172.471 52.3017 174.889 53.9919 177.493 53.5628C179.265 53.2681 180.87 52.0107 182.284 50.9026L197.743 38.7729C200.239 36.8141 202.818 34.7919 204.273 32.1429C204.668 31.4228 205.571 31.1579 206.292 31.5571C207.012 31.9526 207.273 32.8555 206.877 33.5756C205.127 36.7582 202.176 39.0714 199.575 41.116L184.116 53.2457C182.504 54.5105 180.5 56.0813 177.978 56.4991C177.56 56.57 177.139 56.6036 176.709 56.6036H176.713Z" fill="#262626"></path><path d="M42.4623 71.0652C42.0033 71.0652 41.5518 70.8563 41.2608 70.4571C40.7757 69.7967 40.9175 68.8639 41.5779 68.3789C45.3242 65.6254 47.2981 61.0138 49.0406 56.947L49.2682 56.4172C55.2794 42.3959 62.466 28.688 70.6339 15.6779C71.0705 14.9839 71.9884 14.775 72.6862 15.2078C73.3839 15.6443 73.5929 16.5621 73.1563 17.2598C65.0705 30.1431 57.9548 43.7129 52.0033 57.5962L51.7757 58.1222C49.8839 62.5361 47.7384 67.5431 43.3391 70.778C43.0742 70.972 42.7645 71.0652 42.4585 71.0652H42.4623Z" fill="#262626"></path><path d="M126.657 154.23C131.008 152.492 134.437 149.063 136.179 144.716C136.385 144.209 135.956 143.604 135.47 143.47C134.892 143.309 134.429 143.668 134.224 144.179C132.773 147.802 129.739 150.831 126.116 152.279C125.608 152.48 125.254 152.954 125.407 153.525C125.541 154.006 126.142 154.435 126.653 154.234L126.657 154.23Z" fill="#262626"></path><path d="M134.395 148.708C143.276 147.846 150.683 141.194 152.228 132.355C152.451 131.079 150.5 130.534 150.276 131.818C148.895 139.716 142.433 145.906 134.395 146.686C133.108 146.809 133.097 148.835 134.395 148.712V148.708Z" fill="#262626"></path><path d="M84.6791 251.577C82.0672 256.842 81.6567 263.043 83.6754 268.576C84.1194 269.792 86.0746 269.266 85.6269 268.038C83.7948 263.02 84.0448 257.398 86.4254 252.599C87.0037 251.435 85.2575 250.409 84.6754 251.577H84.6791Z" fill="#262626"></path><path d="M87.5859 261.737C86.7426 265.173 84.5523 268.329 84.7016 271.982C84.8322 275.232 86.7091 278.258 89.53 279.855C90.6643 280.496 91.6867 278.75 90.5523 278.105C88.0971 276.713 86.571 274.023 86.7315 271.191C86.9106 268.061 88.7986 265.277 89.5374 262.274C89.8471 261.009 87.8956 260.468 87.5859 261.737Z" fill="#262626"></path><path d="M91.3061 274.161C90.4404 277.444 90.821 280.929 92.2762 283.989C93.5262 286.623 96.5636 290.652 99.9255 289.044C101.101 288.481 100.075 286.735 98.9031 287.294C97.7874 287.828 96.4815 286.477 95.8322 285.742C94.974 284.776 94.2762 283.63 93.7912 282.433C92.7949 279.981 92.5859 277.258 93.2613 274.698C93.5934 273.437 91.6419 272.9 91.3098 274.161H91.3061Z" fill="#262626"></path></g><defs><clipPath id="clip0_16456_15981"><rect width="286" height="375" fill="white"></rect></clipPath></defs></svg>