<svg xmlns="http://www.w3.org/2000/svg" width="487" height="268" viewBox="0 0 487 268" fill="none"><g clip-path="url(#clip0_16523_1006)"><path d="M174.46 59.5025C174.46 59.5025 179.894 60.1892 191.346 69.6175C202.799 79.0457 223.943 79.9082 234.964 78.9765C245.991 78.0449 277.672 74.8879 309.204 94.0639C340.741 113.24 344.12 121.614 353.726 145.682C363.337 169.751 350.719 191.024 350.719 191.024C350.719 191.024 341.56 207.831 327.383 211.52C327.383 211.52 326.803 217.877 322.034 219.9C317.266 221.923 302.413 220.289 302.413 220.289C302.413 220.289 278.05 217.882 262.137 221.497C246.225 225.112 234.288 216.977 234.288 216.977C234.288 216.977 228.908 211.499 232.261 206.548C235.613 201.597 244.458 200.713 249.934 202.129C255.416 203.546 277.688 203.514 281.307 201.405C281.307 201.405 260.711 195.086 247.987 195.47C235.092 195.864 208.956 198.057 212.655 189.661L214.613 185.977C214.613 185.977 192.23 196.529 189.117 197.285C186.003 198.036 179.921 198.445 179.921 198.445C179.921 198.445 176.802 211.536 171.704 213.448C166.605 215.359 120.087 234.141 117.224 235.743C114.361 237.34 104.579 242.957 100.168 253.796C95.7559 264.635 94.2977 263.799 91.9561 264.47C89.6145 265.141 73.5586 270.709 65.8951 266.365C58.2317 262.021 65.5918 243.633 68.0984 241.259C70.6049 238.884 87.5284 222.674 89.5666 218.5C89.5666 218.5 79.7372 223.281 70.5996 223.265C61.4621 223.249 56.8321 230.026 56.8321 230.026C56.8321 230.026 49.174 246.833 33.0169 249.734C25.4173 251.097 19.5953 251.315 15.556 251.166C11.1229 251.001 7.79147 247.077 8.30769 242.669C8.83455 238.15 10.926 232.586 17.259 228.743C30.1272 220.933 33.6076 217.377 38.1152 211.308C42.6228 205.239 55.6613 190.364 61.0257 187.649C61.0257 187.649 69.5619 165.849 64.1336 147.279C59.312 130.781 58.253 104.855 61.5685 89.3577C62.3348 85.7855 61.627 82.0643 59.6314 79.0138C56.252 73.8498 51.5741 66.1943 51.5954 63.4526C51.5954 63.4526 43.6127 66.0293 40.1535 57.4635C36.6943 48.8977 32.9743 28.6251 39.9991 17.818C42.3727 13.7773 51.9307 17.1631 57.3749 14.7089C62.8138 12.2547 87.4751 2.47508 87.4751 2.47508C87.4751 2.47508 94.6968 -2.02344 105.921 1.95868C109.268 2.70932 116.208 -0.484896 120.071 0.0687675C123.935 0.622431 153.418 16.4657 153.418 16.4657C153.418 16.4657 177.009 12.1961 182.757 23.9136C188.505 35.631 174.471 59.5078 174.471 59.5078L174.46 59.5025Z" fill="#F4EFE4"></path><path d="M115.069 82.1073C115.069 82.1073 109.263 84.3113 101.738 83.4169C94.2127 82.5225 93.1856 78.3594 93.1856 78.3594C93.1856 78.3594 91.2751 81.3619 85.8309 80.9733C84.2609 80.8615 82.3131 81.2927 82.3131 81.2927C82.3131 81.2927 81.0572 103.812 86.9218 109.689C92.7812 115.567 105.176 109.231 105.176 109.231C105.176 109.231 110.466 102.135 115.069 82.1073Z" fill="#9E6766"></path><path d="M94.5208 36.1899C93.201 34.5342 91.3597 33.3949 89.3108 32.8626C88.6722 32.6975 88.0602 32.4633 87.5226 32.08C86.6392 31.4465 86.0858 30.435 85.2236 29.7748C83.4036 28.3853 80.8384 28.9071 78.5767 29.2904C76.3202 29.6737 73.5316 29.6258 72.3182 27.6773C71.9776 27.1289 71.7754 26.4422 71.2113 26.1228C70.9824 25.9897 70.7163 25.9418 70.4556 25.9098C67.337 25.5797 64.6548 28.5663 64.1918 31.6647C63.7288 34.7631 64.8783 37.8615 66.0863 40.7523C68.0927 45.5596 70.3544 50.5053 70.1256 55.7118C70.0405 57.5911 69.6786 59.6673 70.7589 61.2059C71.2113 61.8501 71.8658 62.3132 72.5098 62.7657C73.8935 63.74 75.3729 64.7461 77.0599 64.8526C79.5772 65.0123 81.7591 63.1384 83.2971 61.142C84.8351 59.1456 86.1177 56.8458 88.2304 55.467C89.4545 54.6684 90.886 54.2425 92.1367 53.4865C94.3239 52.1716 95.8779 49.8505 96.2558 47.327C96.4261 46.1931 96.4207 44.926 96.5964 43.7708C97.0008 41.077 96.2345 38.3406 94.5315 36.2112L94.5102 36.1845L94.5208 36.1899Z" fill="#5E3A1A"></path><path d="M105.281 69.6759C105.281 69.6759 107.165 65.4702 102.418 63.5324C97.6713 61.5946 89.8056 62.4676 89.8056 62.4676C89.8056 62.4676 82.9458 62.6114 82.5999 69.069C82.2859 74.8985 90.2207 75.2072 92.3761 77.6348C92.7167 78.0181 93.2967 78.0714 93.7012 77.7573C94.723 76.9641 96.6974 75.6757 99.8266 74.6323C102.094 73.8763 103.999 72.2845 105.063 70.1497C105.212 69.8569 105.281 69.6759 105.281 69.6759Z" fill="#4D392B"></path><path d="M85.8308 80.9675C91.275 81.3508 93.1856 78.3535 93.1856 78.3535C93.1856 78.3535 94.2127 82.5166 101.738 83.411C109.263 84.3054 115.069 82.1014 115.069 82.1014C114.425 84.8963 113.77 87.4357 113.116 89.7409C110.934 89.3842 108.837 89.1234 106.714 88.6336C105.218 88.2875 103.675 88.032 102.249 87.457C101.589 87.1908 100.939 86.9087 100.269 86.6691C99.9762 86.5627 99.6782 86.4615 99.3748 86.3763C99.2045 86.3284 98.7043 86.2432 98.6936 86.2219C98.5393 86.2219 98.385 86.2219 98.2253 86.2219C98.1774 86.2219 98.1402 86.2219 98.1029 86.2219C97.427 86.387 96.847 85.5884 96.1871 85.812C94.7768 86.2805 93.3612 86.7437 91.9722 87.276C88.8376 88.4792 86.049 88.969 82.2332 88.7241C82.1215 84.2149 82.3131 81.2869 82.3131 81.2869C82.3131 81.2869 84.2609 80.8557 85.8308 80.9675Z" fill="#845556"></path><path d="M86.2618 110.493C86.6024 110.493 86.9696 110.307 87.1612 109.854C87.3368 109.444 87.1452 108.97 86.7354 108.8C86.6503 108.763 86.5651 108.747 86.48 108.736C85.1974 106.335 82.0575 92.8876 83.1166 81.3618C83.1591 80.9199 82.8292 80.526 82.3875 80.4834C81.9405 80.4461 81.552 80.7709 81.5094 81.2127C80.8175 88.7777 81.8979 96.4598 82.6057 100.367C83.0687 102.928 83.6328 105.345 84.2022 107.176C85.075 110.003 85.5699 110.344 86.0383 110.461C86.1128 110.477 86.1873 110.488 86.2671 110.488L86.2618 110.493Z" fill="#262626"></path><path d="M101.737 114.049C101.924 114.049 102.115 113.985 102.264 113.852C106.128 110.482 109.539 104.126 112.397 94.9584C114.51 88.1867 115.521 82.2987 115.532 82.2401C115.606 81.8036 115.313 81.383 114.872 81.3085C114.435 81.2339 114.015 81.5267 113.94 81.9686C113.903 82.1975 109.928 105.036 101.205 112.633C100.87 112.926 100.833 113.432 101.125 113.772C101.285 113.953 101.509 114.049 101.732 114.049H101.737Z" fill="#262626"></path><path d="M105.282 83.4534C105.282 83.4534 102.924 88.3087 106.9 95.9748C110.88 103.636 110.13 109.465 105.282 113.117C100.434 116.769 92.9777 117.866 87.5069 113.884C82.0361 109.902 80.9877 104.636 83.3506 98.5142C85.7135 92.3919 86.4532 95.1549 87.8049 88.117C89.1567 81.0791 88.6032 80.9513 88.6032 80.9513C88.6032 80.9513 92.3764 80.1261 92.8553 78.2256C92.8553 78.2256 98.2783 84.2733 105.287 83.4588L105.282 83.4534Z" fill="#E19490"></path><path d="M96.9265 85.5087C97.15 84.444 98.7838 84.8965 98.5603 85.9612C97.4321 91.3169 97.1447 103.295 98.5496 108.582C98.8317 109.636 97.1979 110.088 96.9158 109.034C95.4364 103.45 95.7344 91.1678 96.9265 85.514V85.5087Z" fill="#EAA29B"></path><path d="M95.3832 81.7984C94.9628 86.5897 94.8191 91.3544 94.9734 96.1563C95.1171 99.7339 95.4098 103.333 96.24 106.82C96.522 107.98 96.8626 109.125 97.3256 110.222C96.5699 107.97 96.2506 105.601 96.0697 103.242C95.7397 98.5201 95.9899 93.7767 96.4475 89.0705C96.6817 86.7174 96.9744 84.3537 97.3469 82.0379C97.5119 80.7017 95.5641 80.4408 95.3885 81.793L95.3832 81.7984Z" fill="#CD7F6D"></path><path d="M96.2613 85.2528C93.7441 87.0256 90.7852 88.1169 87.7305 88.4736C87.7571 88.3512 87.7784 88.234 87.805 88.1063C89.1567 81.063 88.6032 80.9406 88.6032 80.9406C88.6032 80.9406 92.3764 80.1154 92.8554 78.2148C92.8554 78.2148 98.2783 84.2626 105.287 83.448C105.287 83.448 104.452 85.1676 104.611 88.1701C101.631 88.0051 98.6721 86.9936 96.2667 85.2528H96.2613Z" fill="#CD7F6D"></path><path d="M106.123 84.439C107.203 84.439 108.364 84.3911 109.62 84.29C120.758 83.3796 127.682 76.1979 130.816 71.9975C131.141 71.561 131.051 70.9435 130.614 70.6134C130.178 70.2886 129.56 70.3738 129.231 70.8157C126.293 74.7499 119.822 81.4737 109.455 82.3202C105.873 82.613 97.241 82.8046 94.4897 78.2689C94.1916 77.7791 93.6807 77.465 93.1113 77.4277C92.5419 77.3904 91.9884 77.6353 91.6318 78.0825C90.6313 79.3229 88.3057 81.2821 83.9418 80.4143C77.7099 79.1739 76.2731 72.4075 76.2198 72.12C76.1134 71.5876 75.5919 71.2416 75.0597 71.3481C74.5275 71.4545 74.1763 71.9709 74.2827 72.5086C74.3519 72.8493 76.0176 80.8562 83.5586 82.3521C88.6782 83.369 91.5946 81.149 92.9729 79.5625C94.3194 81.5802 97.72 84.4443 106.123 84.4443V84.439Z" fill="#262626"></path><path d="M164.078 74.9302C164.078 74.9302 164.094 74.9302 164.099 74.9302C166.882 74.9089 169.745 70.5115 171.656 67.2055C173.742 63.5907 175.301 60.0451 175.365 59.896C175.583 59.3956 175.355 58.8153 174.854 58.5971C174.354 58.3788 173.774 58.6077 173.556 59.1081C173.54 59.1454 171.975 62.7123 169.937 66.2312C166.339 72.46 164.546 72.9551 164.083 72.9604H164.078C162.864 72.9604 159.437 70.3039 154.924 62.9678C150.23 55.3336 146.095 45.405 143.285 35.0078C143.142 34.4807 142.599 34.172 142.072 34.3104C141.545 34.4541 141.236 34.9971 141.375 35.5242C144.233 46.097 148.448 56.2121 153.242 64.0006C154.823 66.5666 160.262 74.9302 164.078 74.9302Z" fill="#262626"></path><path d="M49.6315 64.0912C49.6315 64.0912 49.6422 64.0912 49.6475 64.0912C52.2924 64.0539 54.7458 62.7017 56.7468 60.1836C58.205 58.3469 58.9128 56.5262 58.9447 56.4517C59.1416 55.9406 58.8862 55.371 58.3753 55.174C57.8644 54.977 57.2949 55.2325 57.098 55.7383C57.0661 55.8181 54.5861 62.0469 49.6155 62.1161C49.0727 62.1214 48.6363 62.5739 48.6416 63.1169C48.647 63.6599 49.0887 64.0912 49.6262 64.0912H49.6315Z" fill="#262626"></path><path d="M118.31 101.044C118.443 101.044 118.581 101.017 118.709 100.959C130.566 95.7094 135.531 83.7577 135.738 83.2519C135.946 82.7462 135.701 82.1712 135.196 81.9636C134.69 81.756 134.115 82.0009 133.908 82.5066C133.86 82.6237 129.022 94.2347 117.91 99.1538C117.41 99.3721 117.187 99.9577 117.405 100.458C117.57 100.825 117.932 101.049 118.31 101.049V101.044Z" fill="#262626"></path><path d="M56.8321 231.011C57.1354 231.011 57.4335 230.872 57.625 230.611C61.015 226.033 61.9623 216.264 61.9996 215.849C62.0528 215.306 61.6537 214.827 61.1108 214.773C60.5627 214.72 60.0837 215.119 60.0358 215.662C60.0252 215.758 59.0992 225.298 56.0391 229.429C55.7145 229.866 55.805 230.489 56.2467 230.814C56.4223 230.947 56.6299 231.005 56.8321 231.005V231.011Z" fill="#262626"></path><path d="M89.5616 219.48C89.833 219.48 90.1044 219.368 90.296 219.15C102.589 205.393 132.141 196.114 132.439 196.023C132.961 195.864 133.254 195.31 133.089 194.788C132.929 194.267 132.376 193.974 131.854 194.139C131.78 194.16 124.201 196.524 115.181 200.591C103.02 206.075 94.149 211.877 88.8272 217.84C88.4653 218.245 88.4972 218.873 88.907 219.235C89.0932 219.405 89.3327 219.485 89.5669 219.485L89.5616 219.48Z" fill="#262626"></path><path d="M282.281 201.571C282.419 200.788 283.036 193.511 262.457 179.211C251.153 171.359 244.943 158.689 241.723 149.441C238.764 140.95 236.407 129.099 237.806 121.763C237.907 121.226 237.556 120.709 237.019 120.608C236.481 120.507 235.965 120.858 235.864 121.396C234.81 126.938 235.635 137.963 239.855 150.096C243.171 159.62 249.589 172.685 261.329 180.84C280.87 194.416 280.338 201.193 280.328 201.262V201.23L282.275 201.576L282.281 201.571Z" fill="#262626"></path><path d="M486.218 150.133C380.176 222.386 353.731 145.677 353.731 145.677L354.109 183.305C354.109 183.305 355.126 208.161 378.744 217.701C378.744 217.701 374.657 214.975 373.747 210.887C373.747 210.887 378.92 219.234 404.704 222.173C404.704 222.173 399.047 219.687 398.823 216.966C398.823 216.966 407.647 226.246 444.511 220.363C444.511 220.363 439.354 219.942 436.177 218.638C436.177 218.638 455.799 221.257 476.538 193.963C476.538 193.963 473.361 196.204 470.556 196.204C470.556 196.204 491.226 183.118 486.218 150.127V150.133Z" fill="#F4EFE4"></path><path d="M87.7624 21.1297C89.4228 20.9221 91.2482 21.9602 92.4403 23.7969C92.6957 24.1909 92.9245 24.6274 93.031 25.1119C93.3716 26.661 92.2753 27.976 91.1364 28.0399C90.0029 28.1038 88.864 27.3638 87.7411 26.8474C85.16 25.6708 82.4885 25.6868 79.8701 25.7134C80.7748 22.466 87.7571 21.1244 87.7571 21.1244L87.7624 21.1297Z" fill="#A07E63"></path><path d="M132.738 224.037C133.35 219.214 134.489 214.268 137.479 210.44C141.301 205.548 147.607 203.157 151.646 198.44C154.323 195.315 156.218 191.025 160.134 189.768C161.683 189.268 163.349 189.337 164.977 189.411C169.033 189.593 173.088 189.779 177.143 189.96C179.027 190.045 180.847 190.647 182.412 191.695C183.79 192.622 185.296 193.66 185.573 193.958C186.573 195.039 187.419 196.231 188.154 197.488C184.902 198.105 179.932 198.44 179.932 198.44C179.932 198.44 176.813 211.531 171.715 213.443C168.394 214.688 147.527 223.079 132.573 229.227C132.392 227.524 132.53 225.74 132.748 224.037H132.738Z" fill="#5E3A1A"></path><path d="M120.103 23.1258C118.629 22.3326 116.553 22.6413 114.776 23.9243C114.398 24.1958 114.025 24.5206 113.749 24.9358C112.87 26.2614 113.419 27.8798 114.456 28.3537C115.489 28.8275 116.819 28.54 118.054 28.4708C120.885 28.3057 123.37 29.2853 125.803 30.2542C126.132 26.9003 120.108 23.1258 120.108 23.1258H120.103Z" fill="#A07E63"></path><path d="M264.41 140.294C262.649 136.994 262.037 133.209 261.568 129.503C261.026 125.186 260.685 120.847 260.568 116.498C260.536 115.225 260.531 113.937 260.861 112.712C262.297 107.357 269.072 105.355 271.893 100.585C273.793 97.3802 273.633 93.4087 274.463 89.7779C275.022 87.329 276.448 84.763 278.46 83.4587C278.955 83.134 279.338 82.6602 279.503 82.0905C279.54 81.9681 279.583 81.8456 279.625 81.7285C289.05 84.0976 299.135 87.9413 309.204 94.0635C326.127 104.354 334.94 111.536 340.965 119.702C340.337 120.794 339.565 121.805 338.676 122.694C335.212 126.155 330.156 127.794 325.265 127.592C319.603 127.363 313.887 124.872 308.443 126.437C299.561 128.992 296.746 140.39 289.327 145.9C281.568 151.655 268.96 148.818 264.416 140.294H264.41Z" fill="#5E3A1A"></path><path d="M340.23 205.116C340.458 205.116 340.687 205.036 340.874 204.876C350.485 196.545 354.136 186.286 355.509 179.152C356.993 171.428 356.222 165.731 356.184 165.497C356.11 164.954 355.61 164.581 355.067 164.656C354.529 164.73 354.151 165.231 354.226 165.774C354.231 165.827 354.987 171.438 353.55 178.854C352.23 185.663 348.734 195.443 339.575 203.386C339.165 203.743 339.117 204.365 339.474 204.781C339.671 205.004 339.942 205.121 340.219 205.121L340.23 205.116Z" fill="#262626"></path><path d="M214.613 186.963C215.007 186.963 215.374 186.728 215.529 186.34C216.316 184.365 219.217 182.917 223.91 182.161C227.657 181.559 231.191 181.634 231.228 181.634C247.044 182.177 264.612 183.721 268.172 185.935C268.635 186.223 269.242 186.079 269.534 185.616C269.822 185.153 269.678 184.546 269.215 184.253C267.124 182.954 261.77 181.895 252.84 181.016C244.091 180.154 234.852 179.776 231.286 179.653C231.127 179.653 227.545 179.568 223.628 180.196C218.115 181.08 214.773 182.895 213.698 185.6C213.496 186.106 213.74 186.681 214.251 186.883C214.374 186.931 214.496 186.952 214.618 186.952L214.613 186.963Z" fill="#262626"></path><path d="M127.857 42.0141C127.857 42.0141 126.702 48.4718 123.222 49.9517C119.742 51.4317 114.255 47.7584 114.255 47.7584L112.339 46.2731C112.339 46.2731 112.307 42.4294 115.399 39.6717C118.491 36.9087 122.206 37.1163 125.063 38.8039C127.921 40.4915 127.857 42.0141 127.857 42.0141Z" fill="#E6E0E2"></path><path d="M88.1989 46.9115C88.1989 46.9115 83.4093 49.5148 80.94 49.009C78.4706 48.5033 76.6399 48.0507 75.3308 45.0641C74.0216 42.0776 74.4048 38.9792 74.4048 38.9792C74.4048 38.9792 77.5021 35.8062 80.3067 36.0298C83.1113 36.2534 87.0228 40.0652 87.0228 40.0652C87.0228 40.0652 89.1835 42.7909 88.2043 46.9168L88.1989 46.9115Z" fill="#E6E0E2"></path><path d="M88.0396 49.9464C92.2013 40.9067 83.564 30.6107 74.6712 37.5315C73.7133 38.3247 72.8884 39.267 72.2125 40.2998C71.9358 40.7204 72.0529 41.2847 72.4733 41.5562C72.9044 41.8384 73.4844 41.7053 73.7505 41.2634C74.8415 39.4693 76.4647 37.9414 78.4497 37.2174C82.7923 35.5138 86.8954 38.8837 87.8161 43.132C88.2898 45.2509 88.0556 47.5507 87.2201 49.595C87.0072 50.1327 87.7948 50.4787 88.045 49.9464H88.0396Z" fill="#262626"></path><path d="M74.0804 38.4845C73.7078 38.905 73.6599 39.4161 73.6333 39.8953C73.6067 40.3797 73.6014 40.8588 73.6333 41.3327C73.7504 43.2705 74.1868 45.1817 75.2671 46.8533C76.3421 48.6314 78.4975 49.4832 80.4559 49.6323C82.3558 49.8559 84.3302 49.4832 86.0438 48.7006C86.8953 48.3333 87.6989 47.9127 88.4865 47.4975C88.8058 47.3271 88.9282 46.9332 88.7579 46.6138C88.593 46.305 88.2204 46.1825 87.9118 46.321C87.0975 46.6883 86.2993 47.0556 85.501 47.3591C84.7027 47.6625 83.8991 47.8968 83.0902 48.0032C81.0945 48.2215 78.7263 48.0086 77.2522 46.5499C76.0015 45.1231 75.5598 43.1161 75.4481 41.2421C75.4268 40.8269 75.4321 40.417 75.4587 40.0071C75.4906 39.5758 75.5545 39.1979 75.3682 38.7666C75.1979 38.2183 74.4689 38.0373 74.091 38.4845H74.0804Z" fill="#262626"></path><path d="M88.5348 42.6471C88.2527 45.1758 85.9484 46.1714 84.0964 46.4482C81.7441 46.8049 78.8969 46.2938 77.2365 44.2069C75.7305 42.317 75.6719 38.9684 77.6091 37.3234C78.6415 36.445 79.9932 36.3172 81.2385 36.4769C82.9043 36.6899 84.5274 37.3766 85.8419 38.5745C87.1564 39.7723 88.1303 41.5078 88.4443 43.451L88.5348 42.6418V42.6471Z" fill="#262626"></path><path d="M112.93 49.313C112.573 47.1409 112.861 44.8464 113.787 42.8873C116.485 37.4571 122.765 36.254 126.485 41.3754C127.097 42.2325 127.576 43.1961 127.916 44.2023C128.326 45.3256 129.986 44.7826 129.64 43.6273C128.784 41.2902 127.235 39.1607 125.074 37.8618C120.375 34.9231 114.819 37.6648 112.765 42.4188C111.802 44.6495 111.583 47.1356 112.052 49.4781C112.18 50.0477 113.02 49.8933 112.93 49.313Z" fill="#262626"></path><path d="M126.894 41.4076C126.617 41.7856 126.591 42.1636 126.527 42.5948C126.463 42.9994 126.373 43.3987 126.261 43.798C125.633 45.9221 124.388 48.5467 122.067 49.1057C120.551 49.4624 118.789 49.2228 117.304 48.6798C115.713 48.0889 114.351 47.0028 112.978 45.9647C112.69 45.7464 112.28 45.805 112.062 46.0925C111.855 46.3693 111.897 46.7579 112.158 46.9869C112.834 47.5725 113.52 48.1581 114.271 48.7064C115.766 49.851 117.608 50.6496 119.513 50.8572C121.077 51.0701 122.881 50.9424 124.281 50.0373C125.431 49.2761 126.314 48.1155 126.953 46.9496C127.629 45.6719 128.092 44.309 128.336 42.8876C128.421 42.4138 128.485 41.9081 128.214 41.413C127.943 40.8966 127.192 40.9072 126.905 41.4023L126.894 41.4076Z" fill="#262626"></path><path d="M113.191 42.2536C112.904 44.7824 114.926 46.2624 116.672 46.9491C118.885 47.8222 121.77 47.9553 123.861 46.2943C125.751 44.7877 126.554 41.5349 125.032 39.5013C124.218 38.4153 122.93 37.9894 121.679 37.8669C120.008 37.7072 118.273 38.0107 116.725 38.8891C115.181 39.7675 113.84 41.2421 113.101 43.0628L113.191 42.2536Z" fill="#262626"></path><path d="M122.344 42.7004C123.305 42.7004 124.084 41.921 124.084 40.9596C124.084 39.9982 123.305 39.2188 122.344 39.2188C121.383 39.2188 120.604 39.9982 120.604 40.9596C120.604 41.921 121.383 42.7004 122.344 42.7004Z" fill="#CECBCA"></path><path d="M82.5156 40.3854C82.5156 39.4218 83.2979 38.6445 84.2559 38.6445C85.2138 38.6445 86.0014 39.4271 86.0014 40.3854C86.0014 41.3436 85.2191 42.1262 84.2559 42.1262C83.2926 42.1262 82.5156 41.3436 82.5156 40.3854Z" fill="#CECBCA"></path><path d="M128.544 137.979C128.666 137.979 128.794 137.957 128.911 137.909C133.302 136.142 137.234 132.868 139.981 128.694C142.727 124.52 144.185 119.617 144.078 114.884C144.068 114.347 143.626 113.921 143.094 113.921C143.088 113.921 143.078 113.921 143.072 113.921C142.53 113.932 142.093 114.384 142.109 114.932C142.311 123.85 136.452 132.745 128.177 136.078C127.671 136.28 127.426 136.855 127.629 137.361C127.783 137.744 128.155 137.979 128.544 137.979Z" fill="#262626"></path><path d="M117.144 151.916C117.304 151.916 117.464 151.879 117.618 151.794C124.632 147.977 129.459 140.358 129.906 132.378C129.938 131.835 129.523 131.367 128.975 131.335C128.437 131.303 127.964 131.718 127.932 132.266C127.517 139.576 123.1 146.555 116.671 150.053C116.192 150.314 116.016 150.915 116.277 151.394C116.458 151.724 116.793 151.911 117.144 151.911V151.916Z" fill="#262626"></path><path d="M108.73 160.62C108.874 160.62 109.023 160.588 109.167 160.519C115.377 157.474 119.778 149.957 119.869 142.243C119.874 141.7 119.438 141.248 118.895 141.242H118.884C118.347 141.242 117.905 141.679 117.894 142.216C117.809 149.217 113.866 156.01 108.299 158.741C107.81 158.981 107.607 159.572 107.847 160.061C108.017 160.413 108.368 160.615 108.736 160.615L108.73 160.62Z" fill="#262626"></path><path d="M9.48892 83.1934C7.81787 82.2564 6.58853 80.9414 6.00845 79.6957C5.4124 78.4553 5.44434 77.3107 6.06699 76.592C6.70029 75.8573 7.77529 75.6497 8.98335 75.7775C10.1914 75.9212 11.5538 76.3737 12.8896 77.1244C14.1987 77.9016 16.9022 80.1323 19.8133 81.7134C21.2448 82.5173 22.687 83.1827 23.778 83.6139C24.3208 83.8482 24.7785 83.9972 25.0978 84.1197C25.4171 84.2368 25.5981 84.3007 25.5981 84.3007C25.5981 84.3007 25.4118 84.3433 25.0819 84.4178C24.7519 84.487 24.2676 84.6041 23.6716 84.6947C22.4742 84.9076 20.8084 85.0939 18.9937 85.0886C15.3589 85.1472 11.144 84.1783 9.49424 83.188L9.48892 83.1934Z" fill="#EEA31B"></path><path d="M8.89298 113.602C7.10485 114.673 5.3859 115.508 3.93304 116.009C2.46954 116.483 1.21891 116.589 0.500464 115.924C-0.191373 115.29 -0.186051 113.954 0.633509 112.362C1.42114 110.76 3.08155 108.971 5.32736 107.629C6.43962 106.948 8.3874 106.144 10.6971 105.596C13.0014 105.031 15.6464 104.744 18.0891 104.802C20.5371 104.845 22.7616 105.202 24.3369 105.606C25.1245 105.777 25.7578 105.995 26.1889 106.128C26.62 106.266 26.8648 106.341 26.8648 106.341C26.8648 106.341 26.6146 106.373 26.1623 106.426C25.7153 106.485 25.0713 106.538 24.2997 106.692C22.7563 106.937 20.6968 107.459 18.6426 108.236C16.583 109.003 14.5394 110.036 12.8471 111.058C11.1441 112.069 9.78704 113.054 8.8983 113.597L8.89298 113.602Z" fill="#EEA31B"></path><path d="M219.1 36.2917C222.841 33.4649 226.832 31.9742 228.094 33.4595C229.323 34.8969 227.375 38.746 223.272 41.855C221.26 43.3936 216.018 46.0447 210.973 47.0509C208.472 47.5833 206.099 47.7164 204.396 47.6046C203.549 47.5939 202.858 47.4768 202.389 47.4236C201.921 47.3597 201.66 47.3278 201.66 47.3278C201.66 47.3278 201.916 47.2532 202.373 47.1255C202.826 46.9924 203.48 46.838 204.241 46.5292C205.785 46.0022 207.77 45.0545 209.701 43.8141C213.597 41.3705 217.221 37.7132 219.1 36.2864V36.2917Z" fill="#EEA31B"></path><path d="M229.648 60.5787C233.905 60.7384 237.226 62.5591 237.077 64.4703C236.928 66.3922 233.485 67.6858 229.377 67.5314C227.322 67.4409 222.831 66.4561 218.791 65.6256C214.742 64.7951 211.187 64.0657 211.187 64.0657C211.187 64.0657 214.683 63.0436 218.77 62.1492C222.852 61.2388 227.525 60.4882 229.648 60.5787Z" fill="#EEA31B"></path></g><defs><clipPath id="clip0_16523_1006"><rect width="487" height="268" fill="white"></rect></clipPath></defs></svg>