<svg width="388" height="170" viewBox="0 0 388 170" fill="none" xmlns="http://www.w3.org/2000/svg">
<g clip-path="url(#clip0_18511_1044)">
<mask id="mask0_18511_1044" style="mask-type:luminance" maskUnits="userSpaceOnUse" x="0" y="-17" width="404" height="205">
<path d="M404 187.5H0V-16.5H404V187.5Z" fill="white"/>
</mask>
<g mask="url(#mask0_18511_1044)">
<path d="M369.193 6.74859C367.721 6.13049 366.139 5.54889 364.467 5.00359C334.931 -4.68481 303.359 4.73089 273.678 8.76619C233.509 14.2375 193.903 22.9261 153.479 26.8886C123.361 29.8515 93.0437 29.8333 62.9077 32.4144C50.548 33.4687 -15.9038 38.74 3.52643 59.4254C14.3412 70.9314 36.3525 67.8595 50.9842 68.0594C62.4715 68.223 73.9588 67.0779 85.4279 68.0594C91.2443 68.5502 110.747 70.6951 109.475 78.1295C107.621 89.054 73.6134 87.854 65.2161 89.381C49.1666 92.289 24.6652 94.071 11.3967 103.668C-3.41684 114.374 12.2873 124.499 25.9557 125.008C44.459 125.699 62.5987 116.083 80.9384 114.411C85.8641 113.956 103.259 112.866 103.586 120.118C103.877 126.662 86.1913 132.951 81.2292 135.332C70.5962 140.422 54.0014 146.184 55.1829 159.453C56.0372 168.996 71.4505 169.85 79.448 168.796C112.71 164.452 145.518 156.181 177.199 146.438C207.08 137.259 235.544 125.28 264.917 115.029C299.179 103.068 334.404 92.98 362.268 70.477C384.588 52.4636 403.001 20.9448 369.157 6.76669L369.193 6.74859Z" fill="#6ECFBC"/>
<mask id="mask1_18511_1044" style="mask-type:luminance" maskUnits="userSpaceOnUse" x="-1" y="0" width="389" height="170">
<path d="M369.193 6.74859C367.721 6.13049 366.139 5.54889 364.467 5.00359C334.931 -4.68481 303.359 4.73089 273.678 8.76619C233.509 14.2375 193.903 22.9261 153.479 26.8886C123.361 29.8515 93.0437 29.8333 62.9077 32.4144C50.548 33.4687 -15.9038 38.74 3.52643 59.4254C14.3412 70.9314 36.3525 67.8595 50.9842 68.0594C62.4715 68.223 73.9588 67.0779 85.4279 68.0594C91.2443 68.5502 110.747 70.6951 109.475 78.1295C107.621 89.054 73.6134 87.854 65.2161 89.381C49.1666 92.289 24.6652 94.071 11.3967 103.668C-3.41684 114.374 12.2873 124.499 25.9557 125.008C44.459 125.699 62.5987 116.083 80.9384 114.411C85.8641 113.956 103.259 112.866 103.586 120.118C103.877 126.662 86.1913 132.951 81.2292 135.332C70.5962 140.422 54.0014 146.184 55.1829 159.453C56.0372 168.996 71.4505 169.85 79.448 168.796C112.71 164.452 145.518 156.181 177.199 146.438C207.08 137.259 235.544 125.28 264.917 115.029C299.179 103.068 334.404 92.98 362.268 70.477C384.588 52.4636 403.001 20.9448 369.157 6.76669L369.193 6.74859Z" fill="white"/>
</mask>
<g mask="url(#mask1_18511_1044)">
<path d="M120.689 186.991C104.04 164.67 90.6807 140.131 78.2482 115.283C72.2138 103.214 66.561 90.962 60.3993 78.9656C54.2376 66.9688 47.5852 55.7718 41.6779 43.9204C35.28 31.0693 29.6635 17.5093 28.0822 3.13131C28.0095 2.38601 28.9183 1.7498 29.5908 1.9861C36.3705 4.36731 41.8779 9.22061 46.9127 14.1829C52.6563 19.8359 58.2182 25.489 64.289 30.7966C78.9208 43.5568 93.8433 56.0081 109.02 68.1139C122.78 79.111 136.866 89.69 150.753 100.542C163.967 110.866 177.235 121.154 191.34 130.225C206.935 140.258 223.73 149.092 242.015 152.982L240.543 153.818C242.269 148.511 237.362 143.148 234.217 139.44C230.019 134.478 226.129 129.298 222.167 124.135C212.697 111.829 203.173 99.56 193.957 87.054C184.742 74.5486 175.799 62.0246 166.984 49.3371C158.75 37.5039 151.134 25.3254 143.228 13.274C140.101 8.52981 136.884 3.80381 134.394 -1.32209C132.304 -5.61179 130.232 -10.8104 131.704 -15.591C131.85 -16.0636 132.322 -16.518 132.849 -16.4635C140.883 -15.7909 147.554 -11.7375 154.061 -7.28411C161.822 -1.97639 169.492 3.42211 177.072 8.96611C192.449 20.2176 207.844 31.4328 223.384 42.4662C239.052 53.5723 254.647 64.8057 270.569 75.5665C281.966 83.2735 293.09 91.362 304.468 99.087C311.066 103.577 317.845 107.885 324.989 111.484C331.114 114.574 337.785 117.373 344.71 117.864L343.565 118.737C344.437 115.847 343.31 112.738 342.056 110.139C340.42 106.722 338.257 103.577 335.985 100.56C331.659 94.816 326.661 89.69 322.062 84.182C319.172 80.7105 316.628 76.9479 313.938 73.3307C310.375 68.5138 306.794 63.6969 303.268 58.8437C296.216 49.119 289.327 39.2671 282.984 29.0516C276.004 17.8001 269.733 6.11231 264.771 -6.17529C264.517 -6.79332 265.062 -7.4477 265.607 -7.64763C271.787 -9.79252 279.276 -5.95719 284.62 -3.19429C293.726 1.54991 302.123 7.62101 310.284 13.8193C324.607 24.7073 337.803 37.0313 352.307 47.6648C369.447 60.2433 386.533 72.8944 403.491 85.746C404.709 86.654 403.509 88.745 402.292 87.8C387.605 76.6571 372.81 65.66 357.942 54.7357C350.562 49.3008 343.328 43.9204 336.331 38.031C320.972 25.1072 305.522 11.7472 288.182 1.53171C284.202 -0.813094 280.076 -3.04889 275.677 -4.52119C272.714 -5.52099 269.297 -6.41159 266.244 -5.33919L267.08 -6.8115C276.277 15.946 290.036 36.5042 304.359 56.2989C308.03 61.3884 311.775 66.4235 315.501 71.4585C318.282 75.2211 320.917 79.1473 323.934 82.7282C328.551 88.218 333.513 93.398 337.857 99.124C341.802 104.322 347.963 112.302 345.837 119.355C345.691 119.827 345.219 120.264 344.692 120.227C332.096 119.318 320.208 112.084 309.83 105.449C299.451 98.815 289 90.635 278.349 83.583C262.39 73.0035 246.741 61.9519 231.146 50.8458C215.55 39.7397 199.755 28.5972 184.288 17.1639C175.654 10.7838 167.002 4.42191 158.15 -1.66739C150.444 -6.97509 142.519 -13.337 132.849 -14.1368L133.994 -15.0093C132.613 -10.5014 134.976 -5.44819 136.993 -1.48569C139.374 3.14951 142.301 7.47561 145.154 11.8199C153.043 23.7985 160.604 35.9407 168.802 47.7194C186.505 73.1671 205.081 97.942 223.966 122.518C228.419 128.316 232.981 133.969 237.544 139.658C240.797 143.694 244.632 148.947 242.851 154.4C242.651 155.036 242.033 155.381 241.379 155.236C209.152 148.383 181.47 127.316 155.969 107.558C127.251 85.291 98.4419 63.2243 70.8506 39.5761C63.4893 33.2687 56.1461 26.9976 49.3846 20.054C43.4592 13.9648 37.1885 7.14841 28.9547 4.25831L30.4633 3.11311C31.881 16.1278 36.8249 28.5063 42.4959 40.1941C48.1668 51.8819 54.9283 63.4243 61.0537 75.0939C67.179 86.763 72.7591 98.906 78.6481 110.793C84.5372 122.681 91.026 135.241 97.7875 147.166C105.367 160.507 113.564 173.504 122.725 185.81C123.652 187.046 121.58 188.227 120.671 187.009L120.689 186.991Z" fill="#F8623F"/>
</g>
</g>
</g>
<defs>
<clipPath id="clip0_18511_1044">
<rect width="388" height="170" fill="white"/>
</clipPath>
</defs>
</svg>
