<svg xmlns="http://www.w3.org/2000/svg" width="103" height="77" viewBox="0 0 103 77" fill="none"><g clip-path="url(#clip0_16456_15771)"><path d="M98.8759 19.9202C99.8504 18.735 100.53 17.354 99.8012 15.8561C98.6971 13.58 95.5389 12.7659 93.2838 13.697C92.3317 12.2823 91.2007 10.9891 89.8798 9.84878C89.4127 9.44845 88.9366 9.08409 88.4449 8.72874C88.4762 8.38687 88.4896 8.05176 88.4807 7.76162C88.4605 6.18051 87.8325 4.61964 86.4959 3.71775C85.2644 2.89458 83.6485 2.85635 82.2739 3.29492C81.3821 3.57831 80.278 4.10685 79.4131 4.81756C77.1534 4.32501 74.8245 4.09335 72.4911 4.05287C72.2989 3.45461 72.0441 2.87434 71.8161 2.37504C71.2462 1.09981 70.3097 -0.0877155 68.7832 0.00674642C67.2611 0.0989593 65.6832 1.38094 64.5567 2.29632C63.6202 3.05652 62.7083 3.91567 62.0914 4.94801C59.3736 5.36859 56.6558 5.87913 53.9536 6.47964C53.0484 3.98989 51.9734 0.735453 48.8957 1.70481C47.2731 2.21311 46.2718 4.06186 45.4627 5.43606C45.0201 6.18501 44.6156 6.9407 44.3876 7.78636C44.296 8.12373 44.2803 8.5578 44.2468 8.98063C41.7927 9.70034 39.3588 10.474 36.9583 11.2905L36.9047 11.3062C36.0866 8.54656 33.1632 5.75768 30.4879 7.53447C29.0552 8.49033 28.2148 10.2131 27.855 11.8617C27.6829 12.6647 27.5286 13.8364 27.703 14.8418C25.8859 15.6335 24.0911 16.4656 22.321 17.345C21.532 17.7386 20.7453 18.1367 19.9585 18.5483C19.2254 17.8218 18.3672 17.1831 17.6631 16.6545C16.2595 15.6065 14.9364 15.6694 13.6848 16.9064C12.4085 18.1659 11.2038 19.8775 10.8775 21.6745C10.7323 22.4797 10.7524 23.5975 11.1726 24.3599C11.0586 24.4656 10.9379 24.5624 10.8239 24.6726C8.61119 26.8002 6.88797 29.4204 5.75703 32.2678C3.18002 31.051 -0.429583 32.342 0.0442476 35.6796C0.343744 37.7556 2.17201 39.6043 4.21708 40.0316C4.21261 40.9628 4.26626 41.8916 4.39365 42.8138C4.37801 44.0305 4.43835 45.245 4.56128 46.4528C2.68161 47.5391 1.62219 50.4112 1.77865 52.3747C1.91498 54.1312 2.92746 55.0646 4.56799 55.4874C5.4039 55.6988 6.39626 55.944 7.34392 55.935C7.55178 56.3376 7.77305 56.7447 8.00773 57.1337C9.00456 58.8003 10.3098 60.188 11.7559 61.4363C11.0362 63.6989 11.3536 67.0635 12.8779 68.4444C14.724 70.1178 18.2599 69.0989 19.9004 67.2547C22.2651 68.7188 24.7326 69.9851 27.4012 70.8622C27.5935 70.9229 27.7879 70.9769 27.9779 71.0377C27.5733 73.6286 28.6462 76.3163 31.8311 76.0306C34.055 75.8327 36.1403 74.5687 37.1773 72.6975C39.9555 72.8684 42.7493 72.7672 45.5297 72.4591C45.6638 75.3672 48.6096 77.8187 51.4481 76.2645C52.7825 75.5358 53.4418 74.1054 53.8575 72.6997C54.0207 72.1509 54.2665 71.4605 54.4208 70.761C57.1408 70.0593 59.8564 69.2204 62.534 68.269C64.132 70.0548 66.9281 70.8127 68.9821 69.3081C70.113 68.4782 70.9713 66.5529 71.2551 64.6885C73.298 63.7303 75.3028 62.7025 77.2384 61.6049C77.2987 61.5712 77.3568 61.5352 77.4172 61.5015C79.2723 63.258 82.4013 63.6809 84.5492 62.2617C86.677 60.8537 87.5531 57.2664 86.3484 54.9296C88.5052 52.9212 90.4743 50.6991 92.1528 48.3218C94.3164 48.8166 96.7481 48.1801 97.993 46.2279C99.4369 43.9653 98.972 40.1463 96.9582 38.2908C97.0901 37.7983 97.2063 37.308 97.3046 36.8154C98.1852 36.4803 98.9899 35.8371 99.7744 35.3243C100.447 34.8902 101.191 34.4944 101.799 33.9703C102.91 33.0055 102.917 31.5256 102.291 30.2773C101.654 29.0111 100.418 28.0305 98.9921 27.909C98.5138 27.8663 97.9662 27.9293 97.4633 28.1002C97.441 26.2222 97.1638 24.2902 96.7839 22.4999C97.5907 21.7038 98.2791 20.6444 98.8714 19.9247L98.8759 19.9202ZM83.1322 29.8365C83.3669 29.9872 83.6351 30.1064 83.9078 30.1851C83.4607 32.5444 82.2918 34.6248 80.7809 36.4848C79.355 36.1272 77.672 36.4848 76.4203 37.137C74.4222 38.1739 72.8957 40.2273 72.9337 42.5304C72.9381 42.834 73.0991 43.0769 73.3226 43.2433C71.9078 44.3297 70.4505 45.3507 68.9486 46.3111C67.4868 45.1888 65.5245 44.7952 63.7253 45.6251C61.8702 46.4753 60.5448 48.7829 60.2453 50.9195C57.4224 52.1205 54.5012 53.0876 51.5219 53.7871C50.791 51.6909 48.0218 50.7126 45.9611 51.1332C44.1552 51.502 42.1459 53.1394 41.9738 55.0713C41.4083 55.0916 40.8473 55.1118 40.2796 55.1118C37.8881 55.1118 35.2887 54.9611 32.7028 54.5743C31.8892 53.4587 30.5884 52.6198 29.3457 52.3859C28.3109 52.1925 27.0593 52.3634 26.0759 52.9144C24.3661 52.2757 22.7546 51.4705 21.3242 50.4517C21.2884 50.4247 21.2526 50.3932 21.2124 50.3662C20.8928 47.9529 21.0515 44.4601 18.6756 43.1444C18.014 42.7823 17.3882 42.8003 16.7915 42.9982C16.4182 40.6074 16.6752 38.0614 17.3033 35.6032C18.9684 36.0755 20.9241 34.7013 21.5767 33.1696C21.9947 32.1935 22.0349 30.2413 21.4962 28.8154C21.8941 28.5028 22.3165 28.2059 22.7769 27.9293C24.4398 26.9262 26.21 26.0513 28.0405 25.2686C28.9367 25.9456 30.2263 26.3212 31.1047 26.2964C33.1498 26.2402 34.5534 24.5061 35.0608 22.6326C36.7013 22.0749 38.3373 21.5373 39.9265 20.9953C40.8071 20.6939 41.6989 20.3925 42.5996 20.0844C44.039 21.3979 45.8158 22.0434 47.6329 20.8738C48.5895 20.2553 49.5148 19.0251 50.1652 17.6959C53.1244 16.8547 56.1373 16.126 59.1613 15.6469C59.957 16.7558 61.9775 17.48 63.0123 17.2753C64.0516 17.0661 65.1825 16.1328 66.0207 15.0284C68.2043 15.0015 70.3812 15.1432 72.5269 15.5232C72.4084 15.8426 72.3436 16.1822 72.3615 16.5084C72.4062 17.7116 73.2265 18.7057 74.3529 19.0543C75.7766 19.4929 77.5379 18.8339 78.7984 17.7206C80.7586 18.9734 82.2382 20.6984 83.13 22.7788C82.1041 23.6852 81.4023 24.9919 81.3509 26.3729C81.2995 27.7741 81.9409 29.0875 83.1277 29.8387L83.1322 29.8365Z" fill="#91B7F9"></path><path d="M20.8504 27.2116C20.4951 26.9687 19.905 27.0789 19.8469 27.5827C19.6502 29.2358 20.8616 30.9451 20.133 32.6094C19.4066 34.2693 17.1 34.5257 15.8238 33.3269C15.4237 32.9513 14.7711 33.5563 15.1175 33.9881C15.8417 34.8945 16.4921 35.5265 17.7057 35.6547C18.8523 35.7762 20.0145 35.3398 20.837 34.5369C21.7355 33.6598 22.073 32.5082 22.0752 31.2712C22.0752 29.9982 21.9881 27.9875 20.8527 27.2094L20.8504 27.2116Z" fill="black"></path><path d="M35.184 20.7706C35.0387 20.0913 34.1492 19.8147 33.8005 20.5232C33.2038 21.7354 33.092 22.9342 32.084 23.9508C30.8681 25.1743 29.0577 25.208 27.8776 23.8293C27.4619 23.3435 26.7914 23.8473 27.0864 24.3984C28.1123 26.3078 30.0412 27.2997 32.0974 26.1594C33.7759 25.2283 35.6176 22.797 35.184 20.7706Z" fill="black"></path><path d="M49.8856 15.899C49.7091 15.6314 49.2934 15.5617 49.0386 15.7573C48.5938 16.0992 48.4731 16.4073 48.2965 16.9336C47.9948 17.8265 47.5902 18.6632 46.9175 19.3357C46.2045 20.0509 45.277 20.35 44.3003 19.9249C43.5984 19.619 43.261 18.9938 42.6977 18.5282C42.4206 18.2988 41.9512 18.4495 41.8976 18.8229C41.54 21.3351 44.8903 22.3674 46.7566 21.6252C48.4619 20.946 51.1127 17.7658 49.8856 15.8968V15.899Z" fill="black"></path><path d="M24.5156 20.2261C24.3346 20.0957 24.0798 20.0597 23.8898 20.2036C23.1254 20.7907 23.2975 21.9804 22.5488 22.6709C21.6101 23.5391 20.5104 22.4685 19.5315 22.3178C19.1471 22.2571 18.8073 22.6349 18.9504 23.015C19.498 24.4679 21.8895 24.9605 23.1344 24.216C24.1223 23.6268 25.8231 21.164 24.5134 20.2239L24.5156 20.2261Z" fill="black"></path><path d="M39.9915 14.0008C39.4216 14.7587 39.017 15.8968 38.1252 16.3061C37.1262 16.7649 36.2657 15.98 35.4164 15.5167C35.0543 15.3187 34.6654 15.7371 34.7905 16.0947C35.2376 17.3744 36.7909 18.0784 38.0805 17.9727C39.5445 17.8535 40.8296 16.1239 41.3325 14.8509C41.6521 14.039 40.5659 13.2361 39.9915 14.0008Z" fill="black"></path><path d="M57.1204 9.82851C57.0266 9.59685 56.7852 9.41692 56.5282 9.44841C55.4889 9.57436 55.0217 10.7709 54.1478 11.3062C52.8269 12.1136 52.1676 11.2095 50.983 10.8271C50.6321 10.7124 50.3482 10.9148 50.3326 11.2859C50.2633 12.9053 52.5386 13.5598 53.7969 13.2899C55.0463 13.0222 57.7418 11.3736 57.1204 9.82851Z" fill="black"></path><path d="M67.775 14.6349C67.7124 14.1716 67.1447 13.805 66.7335 14.1491C65.6473 15.0577 65.1824 16.6074 63.6022 16.794C61.6264 17.0257 60.5893 15.6605 59.4204 14.3628C59.1835 14.0996 58.7454 14.1536 58.665 14.5337C58.1308 17.0594 61.1973 18.5393 63.2669 18.6248C65.1913 18.7058 68.0768 16.83 67.775 14.6349Z" fill="black"></path><path d="M75.7971 10.2917C74.8271 10.0105 73.9599 10.4896 73.0301 10.7235C72.2635 10.9169 71.7182 10.9417 71.1393 10.3254C70.8756 10.0465 70.3749 9.59221 70.4151 9.15813C70.4531 8.76904 69.9368 8.42943 69.6664 8.80952C68.7634 10.0803 69.7513 11.7176 71.0477 12.3204C72.4647 12.9793 75.1423 12.3541 76.1056 11.1396C76.3671 10.809 76.1659 10.3996 75.7971 10.2917Z" fill="black"></path><path d="M85.2864 30.455C84.4527 28.9414 82.5596 29.236 82.3227 27.0611C82.2266 26.1817 82.4211 25.2889 82.8077 24.4994C83.1072 23.8899 83.5386 23.4716 83.6235 22.7879C83.6503 22.563 83.4894 22.3785 83.2614 22.3875C81.1203 22.4752 80.4743 26.0108 80.7649 27.6616C81.0778 29.4294 83.0558 31.8899 85.0852 31.1095C85.3668 31.0016 85.4183 30.7002 85.2864 30.4573V30.455Z" fill="black"></path><path d="M80.8613 16.6971C79.6097 17.4505 78.3626 18.5076 76.8628 18.683C74.668 18.9417 73.6377 17.0952 73.0007 15.3161C72.9247 15.1025 72.6006 15.08 72.509 15.2959C71.5032 17.6889 73.5773 20.0212 75.9643 20.2889C77.8261 20.4981 81.5922 19.3308 81.5229 17.003C81.5117 16.6566 81.1161 16.5396 80.8613 16.6948V16.6971Z" fill="black"></path><path d="M89.3899 18.0242C88.6546 17.318 87.5572 17.5609 86.7794 16.9896C86.2608 16.6118 86.3972 15.9393 86.4262 15.3703C86.4397 15.0937 86.3324 14.167 86.5067 13.9759C86.8062 13.6497 86.4061 13.0492 85.9949 13.2472C85.3981 13.5328 85.2573 14.1603 85.0696 14.7585C84.7902 15.6447 84.5846 16.6185 84.9869 17.5047C85.5948 18.8474 87.8924 19.5963 89.2111 19.0881C89.6715 18.9104 89.7296 18.3459 89.3922 18.022L89.3899 18.0242Z" fill="black"></path><path d="M90.5059 34.9577C89.784 34.5191 89.0755 34.1772 88.8743 33.2686C88.6687 32.342 89.0844 31.3254 89.8957 30.8508C90.5305 30.4775 89.9561 29.3597 89.2856 29.688C87.9445 30.3448 86.9455 31.4153 86.8807 32.983C86.8158 34.5303 87.9132 36.1542 89.4219 36.568C89.9829 36.721 90.7719 36.7884 91.0669 36.1564C91.3195 35.6144 90.944 35.2276 90.5037 34.9599L90.5059 34.9577Z" fill="black"></path><path d="M86.0271 43.8011C85.9332 43.3558 85.4259 42.969 84.9967 43.3198C83.9194 44.2015 84.4558 45.6746 83.5708 46.6935C82.4063 48.0362 80.4819 48.4253 79.3912 46.7385C79.0269 46.1762 78.0658 46.6687 78.3407 47.2962C79.1521 49.1607 81.1614 50.1413 83.1036 49.3362C85.2515 48.4455 86.5143 46.0817 86.0271 43.7989V43.8011Z" fill="black"></path><path d="M96.4446 38.6395C95.7808 38.5405 95.3404 39.2692 95.6981 39.827C96.3373 40.8211 97.1307 41.3789 97.2738 42.6541C97.4168 43.9158 97.2537 45.7399 96.116 46.4821C95.1214 47.1298 93.9055 47.3075 92.75 47.15C91.9543 47.0398 91.2257 46.6867 90.4233 46.6935C90.1752 46.6957 89.9652 47.0106 90.0747 47.2423C91.3777 49.9704 96.4088 49.1337 98.065 47.222C99.8083 45.2113 99.7569 39.1298 96.4401 38.6395H96.4446Z" fill="black"></path><path d="M100.19 27.2547C99.0815 26.3551 96.4621 26.5957 96.9314 28.0464C97.0856 28.5187 97.5215 28.7076 97.9685 28.7841C98.3373 28.847 98.7016 28.9168 99.0704 28.9842C99.2335 29.0157 99.419 29.0292 99.6068 29.0202C100.376 29.515 101.026 30.0998 101.109 31.2333C101.288 33.7411 98.5764 34.7712 96.585 35.2502C95.387 35.5381 96.0486 37.3891 97.251 37.0765C99.9599 36.368 103.131 34.589 102.997 31.3188C102.933 29.7512 101.71 28.0531 100.192 27.2569L100.19 27.2547Z" fill="black"></path><path d="M100.387 15.9685C100.284 15.5726 99.6314 15.6379 99.5934 16.0382C99.4727 17.2617 98.943 18.7034 98.1339 19.6278C97.4656 20.3924 96.1849 20.6331 95.7759 21.5507C95.6418 21.8521 95.7759 22.1827 96.062 22.3334C97.2913 22.9879 98.9452 21.3551 99.6224 20.4307C100.651 19.025 100.818 17.6148 100.387 15.9662V15.9685Z" fill="black"></path><path d="M9.10061 54.3787C8.26694 54.5564 7.55843 55.0399 6.7024 55.1434C5.39713 55.3008 3.85272 54.6801 3.19561 53.4925C2.19878 51.6933 3.33195 48.8976 4.58358 47.4605C4.93448 47.0579 4.39583 46.5586 3.98011 46.8082C1.55062 48.2656 0.0799528 52.0644 1.79871 54.6351C3.3096 56.8932 7.96968 58.3303 9.73313 55.5909C10.0282 55.1321 9.80018 54.228 9.10285 54.3742L9.10061 54.3787Z" fill="black"></path><path d="M13.0277 45.875C11.6085 45.3622 10.2652 45.4364 9.81819 43.6326C9.45164 42.1617 10.0819 40.5199 11.0542 39.4223C11.5213 38.8938 10.7033 38.2416 10.2227 38.7296C8.58891 40.3849 7.4021 42.3889 8.23354 44.7842C8.83924 46.5295 11.3984 48.6279 13.1395 47.0625C13.4859 46.7521 13.5664 46.0684 13.0277 45.875Z" fill="black"></path><path d="M22.1355 57.7048C21.0023 57.8173 20.0368 58.627 18.85 58.3301C17.2676 57.9342 17.2095 55.7031 17.3972 54.3649C17.4665 53.8656 16.7759 53.6272 16.5524 54.0973C15.6337 56.0405 15.3074 58.5483 17.5224 59.7515C19.1093 60.6152 21.8785 60.3588 22.7099 58.5325C22.8887 58.1389 22.5736 57.6621 22.1355 57.7048Z" fill="black"></path><path d="M19.7525 66.1549C18.892 66.6137 18.3355 67.4054 17.4057 67.79C16.3373 68.2331 15.1505 68.1971 14.1224 67.6551C11.7376 66.3956 12.4171 63.7529 11.9499 61.5803C11.874 61.2271 11.4694 61.1417 11.2772 61.4611C9.65231 64.1645 10.7162 68.0442 13.5949 69.3824C15.9127 70.4597 20.1414 69.7107 20.7873 66.8139C20.9281 66.1819 20.2174 65.9098 19.7547 66.1572L19.7525 66.1549Z" fill="black"></path><path d="M33.3066 63.4066C32.0974 63.528 31.3956 64.7155 30.1619 64.846C28.7135 64.9989 27.3189 63.2176 27.1043 61.9177C27.0171 61.3869 26.2505 61.3014 26.141 61.8727C25.7521 63.8856 26.9814 65.8873 28.9706 66.4991C30.7228 67.0389 33.4451 65.9728 33.9346 64.0993C34.0307 63.7304 33.6642 63.3706 33.3088 63.4066H33.3066Z" fill="black"></path><path d="M55.2883 70.2907C55.1073 69.8409 54.4993 69.7059 54.1842 70.0995C52.9214 71.6694 53.0466 73.7543 50.8964 74.6877C47.9998 75.9427 46.9002 73.6508 44.8462 72.2744C44.5064 72.0472 44.0795 72.2519 44.084 72.6747C44.122 75.7515 47.9551 77.5148 50.6104 76.867C53.051 76.271 56.4036 73.0638 55.2883 70.2907Z" fill="black"></path><path d="M44.7338 64.5514C43.6297 64.6234 42.9525 65.8064 41.8729 65.8761C41.2583 65.9143 41.0057 65.5028 40.7353 64.9877C40.5565 64.6481 40.1899 64.1128 40.2458 63.7215C40.295 63.3639 39.801 63.0647 39.5664 63.4043C38.6902 64.6841 39.2825 66.733 40.6705 67.455C42.2171 68.2579 45.0109 66.9849 45.3797 65.2689C45.4646 64.8753 45.1115 64.5289 44.7338 64.5536V64.5514Z" fill="black"></path><path d="M59.9325 61.7355C59.8475 61.4364 59.4139 61.2115 59.1278 61.3599C58.1869 61.8525 58.0841 62.9006 57.275 63.5461C56.7095 63.9959 55.9965 64.0948 55.297 63.9599C54.7717 63.8587 53.529 63.4831 53.3547 62.8578C53.2072 62.3248 52.2998 62.5182 52.4003 63.0693C52.7714 65.0889 54.8745 66.0493 56.8079 65.6714C58.4305 65.3521 60.4488 63.5551 59.9325 61.7333V61.7355Z" fill="black"></path><path d="M71.5884 62.9185C71.3291 62.327 70.5379 62.2821 70.2361 62.8623C69.3578 64.5491 70.0819 66.5441 68.1888 67.7294C67.3529 68.2534 66.3539 68.521 65.3727 68.4221C64.4027 68.3231 63.6696 67.7473 62.742 67.5404C62.3464 67.4527 62.1341 67.8508 62.2078 68.1814C62.8091 70.8781 66.8836 70.4957 68.7141 69.5624C69.8584 68.9776 70.7457 68.1994 71.1927 66.9714C71.6331 65.7591 72.1248 64.1443 71.5884 62.9185Z" fill="black"></path><path d="M74.0627 52.5974C73.9308 51.9542 72.8669 51.5066 72.6032 52.3365C72.1584 53.7422 72.8379 55.1974 71.5549 56.2972C70.3681 57.316 68.7589 56.9922 67.4179 56.4051C67.1809 56.3017 66.8099 56.4344 66.7898 56.7335C66.6736 58.6363 70.3413 58.8207 71.5304 58.2652C73.7699 57.2193 74.541 54.9432 74.0604 52.5974H74.0627Z" fill="black"></path><path d="M85.7429 53.598C85.2847 53.5777 85.1059 54.1085 85.1953 54.4616C85.5037 55.6896 86.1049 56.524 85.8345 57.8757C85.573 59.1825 84.7527 60.4487 83.6464 61.1796C81.3443 62.7 79.5764 61.3438 77.3413 60.7163C77.0239 60.6286 76.8541 60.9795 76.9099 61.2336C77.7548 64.9964 83.6039 64.036 85.6535 62.104C87.3275 60.5252 89.833 53.7869 85.7429 53.5957V53.598Z" fill="black"></path><path d="M37.1513 71.8359C35.5041 72.848 34.8872 74.5888 32.708 74.8812C29.8382 75.2658 29.0291 73.3428 27.8311 71.2737C27.7149 71.0712 27.4467 71.1567 27.3506 71.3186C25.7973 73.9163 29.1543 76.4421 31.4363 76.7165C33.8926 77.0111 37.8688 75.2815 38.1973 72.4994C38.2688 71.8989 37.6564 71.5256 37.1535 71.8359H37.1513Z" fill="black"></path></g><defs><clipPath id="clip0_16456_15771"><rect width="103" height="77" fill="white"></rect></clipPath></defs></svg>