<svg width="143" height="54" viewBox="0 0 143 54" fill="none" xmlns="http://www.w3.org/2000/svg">
<g clip-path="url(#clip0_18511_1030)">
<mask id="mask0_18511_1030" style="mask-type:luminance" maskUnits="userSpaceOnUse" x="-5" y="-23" width="154" height="110">
<path d="M148.067 19.9168L16.4365 -22.5L-4.99999 44.0231L126.631 86.44L148.067 19.9168Z" fill="white"/>
</mask>
<g mask="url(#mask0_18511_1030)">
<path d="M4.72698 34.6166C4.0421 38.0346 4.5279 41.6729 6.6215 44.5207C9.627 48.6145 14.6373 50.4631 19.3294 51.8341C23.866 53.1604 28.5796 53.0568 33.0005 51.2922C36.0694 50.0681 39.5934 47.8842 41.431 44.8988C43.5051 45.8066 45.7294 46.3797 47.7172 46.3367C50.804 46.2754 51.9681 44.2274 51.7485 41.8213C53.2162 41.7702 54.5911 40.8381 55.1065 39.2221C55.9688 36.497 54.2283 34.3482 52.2641 32.7205C53.6342 31.8773 54.8458 30.7356 55.1226 29.2262C69.8506 34.1238 82.6175 43.2464 97.0559 48.8939C109.217 53.6479 126.057 56.5953 136.691 46.7948C141.081 42.7565 143.747 36.7558 142.568 30.7557C141.279 24.1773 136.475 19.2168 130.916 15.8533C118.51 8.35808 103.242 6.72798 89.0315 6.96598C75.7417 7.19718 62.3208 9.40778 50.4247 15.3999C50.0299 13.307 49.1812 11.2807 48.0494 9.56469C45.3012 5.38089 40.8132 2.93188 35.9296 2.18008C30.9756 1.41628 25.4846 2.26949 21.1944 4.96189C19.2407 6.18359 17.2015 8.35388 16.3401 10.7388C14.4801 10.0065 12.4307 9.87008 10.6108 10.9647C8.7377 12.0926 7.7688 13.9881 7.682 16.0109C5.9222 15.997 4.21399 16.9095 3.30027 18.5594C2.25298 20.4509 2.62582 22.5872 3.75237 24.2536C1.67358 25.2541 0.379333 27.4756 1.052 30.073C1.55644 32.015 2.96586 33.5198 4.7238 34.6183L4.72698 34.6166ZM53.7217 20.8777C53.7656 20.8732 53.8023 20.8664 53.843 20.8636C57.2687 20.4753 60.6893 20.0614 64.116 19.7107C65.5749 19.5637 67.0362 19.4255 68.5 19.2961C72.2234 18.1153 76.3469 17.9493 80.2254 17.7282C84.218 17.4986 88.214 17.4564 92.2074 17.5702C98.8709 17.7546 105.61 18.2559 112.068 19.9696C115.391 20.8543 118.601 22.0724 121.668 23.6218C123.883 24.7425 126.393 25.945 128.004 27.903C129.91 30.2198 130.232 35.4463 127.323 36.8335C127.152 37.3292 126.927 37.7807 126.615 38.1667C123.257 42.2794 115.157 41.0948 110.714 40.0781C105.156 38.8085 99.9309 36.4067 94.7072 34.1754C89.5714 31.9831 84.4174 29.8063 79.1606 27.9075C71.1451 25.0186 62.7608 22.6813 54.2316 22.1937C54.1348 21.9178 54.0268 21.6436 53.9221 21.3838C53.8599 21.2148 53.7928 21.0442 53.7209 20.8721L53.7217 20.8777Z" fill="#F9A2BF"/>
<path d="M6.80322 22.8718C8.21592 22.8269 9.49232 23.6 10.8383 23.9513C11.9642 24.2449 13.1204 24.2877 14.2593 24.4419C14.6224 23.3646 15.0052 22.3496 15.3564 21.4573C16.8033 17.7742 19.5392 13.384 23.7461 12.6463C24.4096 12.5303 24.6407 13.4187 24.184 13.7902C20.6338 16.6811 18.5812 19.3951 17.2629 23.8485C16.678 25.8198 16.2086 27.8283 15.8855 29.8601C15.6719 31.2063 15.592 32.5823 15.3543 33.9208C17.2515 35.0481 19.2289 36.0338 21.267 36.8475C20.3348 33.4005 21.1011 29.1123 22.07 25.9162C23.4806 21.2505 26.4499 17.9064 30.2861 15.0091C30.8295 14.599 31.4233 15.325 31.0622 15.8364C28.4351 19.5595 25.5107 22.4101 24.387 27.0006C23.5249 30.5238 24.153 34.1734 23.4991 37.6599C24.8877 38.1179 26.2994 38.4877 27.7286 38.7701C27.6004 38.2952 27.5971 37.6797 27.6719 37.0442C26.9481 33.4036 28.4146 28.7374 29.6222 25.4426C30.8252 22.1623 32.9375 18.2175 36.29 16.755C36.9074 16.4858 37.3027 17.2515 36.9884 17.7248C34.9221 20.8519 32.8363 23.4221 31.7256 27.0992C31.1637 28.9583 30.8052 30.8776 30.4986 32.7923C30.2775 34.1866 30.1645 35.6078 29.6805 36.9201C29.6524 37.592 29.5723 38.2524 29.5398 38.8058C29.5334 38.8915 29.5047 38.9807 29.464 39.066C31.422 39.3458 33.4064 39.4533 35.4025 39.3598C35.0045 36.2312 36.3599 32.5851 37.1834 29.6426C37.9573 26.8704 38.641 22.7232 40.7566 20.6866C41.0028 20.4494 41.4054 20.5339 41.4606 20.8975C41.6999 22.4109 41.131 23.8554 40.7619 25.3218C40.3296 27.0337 39.8957 28.7425 39.4731 30.4576C38.7917 33.2144 38.5314 36.591 37.2664 39.2156C37.4699 39.1934 37.671 39.1704 37.8752 39.1458C38.8613 39.0167 39.2314 40.5031 38.288 40.8455C33.3926 42.6248 27.8997 41.7138 23.1121 40.0301C22.4421 39.7956 21.7799 39.537 21.124 39.2671C19.2656 38.357 17.4221 37.4252 15.6432 36.3013C14.2122 35.3987 12.6678 34.5925 11.2991 33.6035C10.5714 33.079 9.98332 32.3682 9.21252 31.9443C8.89312 31.0913 10.0242 30.2322 10.8239 30.8463C11.4667 31.3381 12.1221 31.8153 12.791 32.2755C12.7347 30.3423 13.1386 28.2408 13.7042 26.2553C11.0951 26.5795 7.52132 25.8881 6.31042 23.9977C6.04542 23.5851 6.24112 22.8955 6.80722 22.8757L6.80322 22.8718Z" fill="black"/>
<path d="M42.478 26.9869C44.3052 27.2034 45.9741 27.9114 47.7634 28.3443C49.732 28.8218 51.5955 28.893 53.5828 29.1397C53.9018 29.1787 54.1017 29.6288 53.858 29.8747C52.3503 31.3918 50.0308 31.155 48.0612 30.8369C45.8445 30.4789 43.4356 30.0831 41.844 28.3945C41.3204 27.8374 41.6343 26.888 42.478 26.9869Z" fill="black"/>
<path d="M41.012 35.4225C42.9263 34.9488 44.4138 35.9973 46.1075 36.8011C48.2954 37.8413 50.6656 38.637 53.1113 38.0952C53.36 38.0397 53.5838 38.3166 53.5412 38.5476C53.1539 40.6305 49.7091 40.329 48.2468 40.0094C45.7999 39.4762 42.3418 38.2528 40.7788 36.2118C40.5961 35.972 40.6868 35.5012 41.0127 35.42L41.012 35.4225Z" fill="black"/>
<path d="M9.90311 14.9497C11.1434 14.9292 12.083 15.6442 13.1505 16.193C14.2244 16.7465 15.3391 17.2148 16.3564 17.8698C16.7164 18.1028 16.497 18.7263 16.0938 18.7507C14.7853 18.8264 13.5303 18.4805 12.3151 18.0198C11.14 17.5746 9.89791 17.0653 9.34921 15.8618C9.18121 15.4938 9.48141 14.9575 9.90231 14.9521L9.90311 14.9497Z" fill="black"/>
<path d="M10.1342 37.5478C11.7311 38.4215 12.8964 39.9594 14.4015 41.0109C16.3544 42.377 18.5486 43.4059 20.8213 44.109C25.4957 45.5594 30.1431 44.9531 34.8838 45.6296C35.4925 45.7167 35.6081 46.6423 35.0117 46.8465C30.4252 48.4167 24.5537 47.6019 20.0315 46.1978C16.3849 45.0653 10.4391 42.5296 8.98436 38.6296C8.73936 37.9735 9.45736 37.1781 10.1326 37.5446L10.1342 37.5478Z" fill="black"/>
<path d="M21.5906 8.12958C23.9536 6.93868 26.8633 7.16347 29.4367 7.38627C32.0828 7.61387 34.7204 8.22178 37.1563 9.29138C41.1786 11.061 45.3849 14.3182 46.2449 18.8618C46.3112 19.2077 45.8638 19.2869 45.675 19.0824C42.649 15.7853 39.8107 12.7454 35.4984 11.151C33.3006 10.3391 30.983 9.87417 28.6451 9.71927C26.3439 9.56557 23.9939 9.99988 21.7326 9.49198C21.0202 9.33158 20.9633 8.44608 21.5906 8.12958Z" fill="black"/>
<path d="M29.7563 1.52859C35.4343 -0.530515 46.413 2.67219 47.5572 9.52829C47.6249 9.93579 47.0545 10.2733 46.7473 9.96688C44.564 7.78438 42.9446 5.68798 40.002 4.41258C36.6728 2.97008 33.3358 3.43738 29.8895 2.80298C29.2606 2.68808 29.1226 1.75789 29.7563 1.52859Z" fill="black"/>
<path d="M53.0237 20.2696C54.7143 19.1893 56.7995 18.877 58.7381 18.4431C61.1966 17.8948 63.6723 17.4903 66.1712 17.1784C71.1762 16.549 76.219 16.2881 81.2591 16.1674C90.65 15.9405 100.421 15.5063 109.697 17.2321C116.894 18.5697 126.27 21.668 129.94 28.6202C132.939 34.2997 129.098 41.5841 122.588 41.968C121.306 42.0443 121.086 40.1408 122.371 39.9725C125.876 39.5137 128.954 36.5398 128.892 32.8545C128.823 28.8531 125.161 25.8485 122.039 23.962C115.721 20.144 108.303 18.8256 101.032 18.4004C92.9882 17.9308 84.8068 18.0926 76.76 18.4627C72.6743 18.6516 68.5865 18.9621 64.5289 19.5085C62.6652 19.7591 60.8019 20.0418 58.9485 20.3675C57.0608 20.7008 55.171 21.3207 53.2515 21.2341C52.7888 21.2127 52.6553 20.5073 53.0229 20.2721L53.0237 20.2696Z" fill="black"/>
</g>
</g>
<defs>
<clipPath id="clip0_18511_1030">
<rect width="143" height="54" fill="white"/>
</clipPath>
</defs>
</svg>
