<svg width="97" height="74" viewBox="0 0 97 74" fill="none" xmlns="http://www.w3.org/2000/svg">
<g clip-path="url(#clip0_18511_1071)">
<mask id="mask0_18511_1071" style="mask-type:luminance" maskUnits="userSpaceOnUse" x="-18" y="-19" width="121" height="102">
<path d="M76.3047 -18.5L-18 23.501L8.31694 82.5904L102.622 40.5894L76.3047 -18.5Z" fill="white"/>
</mask>
<g mask="url(#mask0_18511_1071)">
<path d="M92.7711 37.1012C90.1411 39.9037 86.8191 42.2077 83.7441 44.4951C80.7732 46.7023 77.739 48.8125 74.6272 50.8123C70.3161 53.5737 65.8621 56.1798 61.2871 58.5527C54.3574 62.3752 46.9508 65.4266 39.5968 67.997C30.499 71.1708 20.0217 74.3449 10.2616 73.087C6.55207 72.6103 2.80407 70.7723 1.41907 67.0634C0.0667733 63.4535 2.01077 60.5271 4.46517 58.0839C2.44407 52.8194 -0.873228 43.019 1.55867 37.09C2.29467 34.3065 4.50787 32.4625 6.70807 30.5447C9.78497 27.8612 13.0389 25.3774 16.4039 23.0602C28.8823 14.4558 43.1699 8.3966 58.0375 5.4499C63.8029 4.3032 70.6336 2.9351 75.745 6.738C79.6974 9.6787 81.96 14.7334 83.4141 19.6307C86.9381 17.8993 91.9131 19.2617 94.2921 22.4741C97.6531 27.0171 96.4541 33.1785 92.7711 37.1012Z" fill="#4B81E2"/>
<path d="M63.0573 10.6919C62.1894 13.7273 59.38 16.0046 56.9322 18.01C53.5691 20.7584 49.9829 23.2736 46.2412 25.5227C38.467 30.1959 29.9371 33.7334 21.1471 35.9032C17.9025 36.7059 14.1325 37.7568 10.977 36.6184C9.23431 35.9877 7.80751 34.6962 7.40021 33.087C5.80001 29.201 5.85431 22.006 10.9032 21.7298C9.98581 17.5539 9.58631 12.6927 13.7332 9.6009C15.3515 8.3969 17.4805 7.6704 19.4467 8.1334C20.7266 8.4388 21.6429 9.196 22.3517 10.1309C22.9089 7.7937 23.9386 5.5104 26.2679 4.2712C28.1192 3.2846 30.3404 3.1793 31.9263 4.1271C33.9319 0.0961027 39.8999 -0.984497 42.5149 2.6371C46.278 -0.596397 51.9008 0.645402 53.4282 4.8907C55.5479 3.6908 58.0417 3.2992 60.2338 4.4034C62.6191 5.6034 63.7948 8.1095 63.0562 10.6895L63.0573 10.6919Z" fill="#C4803D"/>
<path d="M64.5309 10.5017C60.7867 14.281 57.1036 17.8598 52.6653 20.8454C48.2915 23.791 43.5826 26.2265 38.7157 28.2434C33.5319 30.3902 28.1505 32.0422 22.7155 33.4084C20.0914 34.0683 17.4479 34.6403 14.8044 35.2122C12.2254 35.7697 9.82756 36.4852 7.19726 36.0224C6.46686 35.893 6.02116 36.6514 6.48326 37.23C7.56546 38.5954 9.38556 38.5266 10.9817 38.3501C14.0271 38.0113 17.0791 37.2858 20.0651 36.6096C26.2668 35.2061 32.3896 33.4597 38.3179 31.1491C48.7098 27.0949 59.5268 20.987 66.5226 12.0674C67.4171 10.9273 65.5271 9.50089 64.5343 10.503L64.5309 10.5017Z" fill="black"/>
<path d="M80.0126 31.5399C74.543 35.3458 69.6635 39.9093 64.0845 43.5906C58.8033 47.0739 53.2095 50.091 47.41 52.6143C41.4341 55.2133 35.2363 57.2631 28.8904 58.7507C25.7391 59.4891 22.5614 60.1171 19.3593 60.5883C16.2903 61.0399 13.0439 60.8572 10.0374 61.4744C9.67059 61.5496 9.61749 62.0166 9.89869 62.2211C12.1539 63.8684 15.4625 63.4323 18.0863 63.1476C21.5946 62.7646 25.0931 62.1814 28.5379 61.4202C35.1028 59.9715 41.5446 57.8642 47.733 55.2388C54.1 52.5366 60.2125 49.2373 65.9646 45.3965C71.4212 41.7526 77.0896 37.7303 81.0779 32.4467C81.5995 31.7568 80.6101 31.1288 80.016 31.5412L80.0126 31.5399Z" fill="black"/>
<path d="M19.5697 22.8012C17.8298 21.2399 15.0189 22.7107 13.9104 24.3838C12.5497 26.4337 12.9164 29.2774 14.3413 31.1638C14.5486 31.4381 15.0782 31.225 15.0456 30.8842C14.8965 29.3193 14.4328 27.2776 15.1536 25.8112C15.4904 25.1269 16.0575 24.6156 16.7521 24.3205C17.5638 23.976 18.4191 24.1692 19.2507 23.9268C19.7082 23.794 19.9718 23.1622 19.5708 22.8036L19.5697 22.8012Z" fill="black"/>
<path d="M21.3767 11.4546C18.9589 12.4887 17.4167 15.4124 18.6183 17.8871C18.7833 18.2258 19.3934 18.1871 19.4574 17.7891C19.7248 16.1523 20.0331 14.4035 21.5967 13.4911C23.5632 12.3424 24.9959 13.5261 26.4488 14.7805C27.0203 15.2734 27.79 14.8283 27.689 14.0917C27.2942 11.2548 23.6299 10.4908 21.379 11.4535L21.3767 11.4546Z" fill="black"/>
<path d="M31.9867 17.1942C28.809 16.8217 26.5355 19.2696 26.0164 22.1895C25.9437 22.5998 26.4684 22.8664 26.7094 22.4834C27.8765 20.6107 30.0933 18.2648 32.507 19.4778C34.3278 20.392 34.7178 22.5234 36.3056 23.6153C36.7012 23.8854 37.1492 23.521 37.1903 23.1161C37.4569 20.4451 34.5441 17.4933 31.9867 17.1942Z" fill="black"/>
<path d="M36.3662 5.81651C33.5728 6.47231 31.5367 9.24931 32.674 12.0198C32.8679 12.4934 33.5267 12.2199 33.5581 11.7995C33.697 10.0209 35.0551 8.16261 36.8617 7.82131C38.6612 7.48311 39.7954 8.74871 40.7148 10.0673C41.11 10.6359 42.0344 10.4999 42.0648 9.73321C42.1726 6.87141 38.8641 5.22991 36.3686 5.81551L36.3662 5.81651Z" fill="black"/>
<path d="M46.0182 9.86512C44.5095 10.2699 41.3091 12.8037 42.8397 14.5578C42.9679 14.7053 43.1691 14.6982 43.3299 14.6322C43.8313 14.426 43.9428 14.1091 44.2372 13.6739C44.7329 12.9387 45.3929 12.3236 46.2418 12.0308C48.0291 11.4166 49.2796 12.6247 50.571 13.644C51.1723 14.1209 51.976 13.7203 51.8636 12.9262C51.4954 10.3532 48.2545 9.25852 46.0184 9.85932L46.0182 9.86512Z" fill="black"/>
<path d="M48.2587 16.5097C46.7896 14.5178 44.2545 15.556 42.7387 17.0411C40.9801 18.7651 40.546 20.9707 40.9821 23.3202C41.1022 23.9659 42.1488 23.8494 42.1246 23.1894C42.0199 20.3029 44.7161 17.2746 47.7063 17.4236C48.1303 17.4451 48.538 16.8883 48.2576 16.5073L48.2587 16.5097Z" fill="black"/>
<path d="M53.5954 35.5461C53.4006 37.7474 52.3929 39.9527 51.5024 41.9495C50.9714 43.1409 50.3838 44.3008 49.7893 45.458C49.3944 46.2222 49.0246 47.4186 48.2344 47.8814C47.487 48.3194 46.7282 48.0179 45.9719 47.7664C44.7648 47.3633 43.5618 46.944 42.36 46.5272C40.26 45.8083 38.0613 45.1164 36.3614 43.6196C35.2173 42.6057 33.6613 40.5844 34.3192 38.9385C34.9553 37.3393 36.5568 37.4872 37.9133 37.9262C38.2909 37.9455 38.6426 38.0021 38.9268 38.0858C41.1278 38.7256 43.2575 40.0338 45.323 41.166C45.702 38.9451 46.2083 36.7102 47.3511 34.7573C48.0935 33.486 49.7474 31.0554 51.4894 31.4676C53.1647 31.864 53.7255 34.0728 53.5954 35.5461Z" fill="#91B7F9"/>
</g>
</g>
<defs>
<clipPath id="clip0_18511_1071">
<rect width="97" height="74" fill="white"/>
</clipPath>
</defs>
</svg>
