<svg xmlns="http://www.w3.org/2000/svg" width="332" height="353" viewBox="0 0 332 353" fill="none"><g clip-path="url(#clip0_16523_975)"><path d="M331.779 74.3303C331.155 66.8711 329.417 61.7487 329.417 61.7487C329.417 61.7487 335.721 10.3689 321.998 0.408321C315.53 -3.62916 296.918 26.3565 296.918 26.3565C296.918 26.3565 291.812 22.9979 281.43 22.9844C275.883 22.9776 268.829 23.9272 260.241 26.855C260.241 26.855 247.951 -1.13449 240.224 0.0361507C232.494 1.20454 225.945 28.3121 224.605 32.7916C223.265 37.2735 219.254 52.7648 221.083 63.8261C221.083 63.8261 216.515 72.2597 219.556 86.8195C220.267 91.6306 221.835 97.238 224.841 103.554C224.882 106.157 223.664 108.708 221.434 110.293C219.772 111.473 217.716 112.831 215.243 114.283C212.657 115.531 209.723 116.898 206.509 118.31C198.849 121.679 189.606 125.324 179.726 128.304C172.364 130.167 164.048 131.766 154.713 132.892C148.56 133.634 141.966 134.171 134.905 134.441C99.0259 134.34 65.2658 140.475 52.3879 126.053C52.1176 125.753 51.8563 125.442 51.6064 125.121C38.6991 108.669 24.319 71.5898 63.2276 49.2889C63.5834 49.0837 63.9393 48.8874 64.2906 48.6957C82.1616 38.9584 94.249 45.3146 104.598 52.3001C116.293 60.1969 125.77 68.8967 138.869 56.103C150.657 43.1583 126.602 29.918 116.701 25.4565C115.953 25.1204 115.284 24.8317 114.719 24.5994C111.89 23.4332 104.888 21.7754 95.9584 20.9025C79.4995 19.2898 56.4958 20.3409 41.0301 32.0338C17.1773 50.0739 0 71.3958 0 100.405C0 120.549 5.2836 137.105 12.959 149.795C19.2178 160.141 20.9452 172.604 17.3981 184.168C17.2652 184.603 17.1278 185.05 16.9904 185.503C10.3307 207.321 29.9269 258.11 27.0148 265.026C24.1005 271.941 12.5356 303.075 14.9567 310.219C21.3439 329.08 57.1219 362.909 65.5113 350.223C73.9029 337.54 58.0048 326.696 58.0048 326.696C58.0048 326.696 43.2936 315.799 45.8633 307.413C45.9804 307.031 46.1336 306.652 46.325 306.283C47.9758 303.098 49.7461 299.083 51.9915 294.923C54.2369 290.764 56.9508 286.456 60.4957 282.682C60.4777 282.755 60.2187 283.713 59.9101 285.193C59.0363 289.388 57.7751 297.754 60.4979 301.866C62.4551 304.819 73.4953 317.98 84.4318 329.892C94.3076 340.651 104.102 350.39 107.046 350.672C113.248 351.263 126.102 345.94 118.789 330.853C115.01 323.055 106.474 316.703 99.6002 309.152C93.1725 302.092 88.1975 293.987 89.9114 282.678C91.7604 273.464 93.5711 268.258 93.5711 268.258C93.5711 268.258 116.091 265.24 131.108 239.423C131.432 238.866 131.752 238.297 132.07 237.72C147.236 240.481 170.096 240.738 202.576 232.04H202.579C206.376 231.023 210.306 229.884 214.371 228.612C214.371 228.612 215.486 255.724 212.074 275.126C208.662 294.529 212.247 337.073 228.242 345.279C244.237 353.485 251.212 345.911 252.609 339.234C254.084 332.195 252.142 326.31 244.46 322.845C244.1 322.681 243.726 322.523 243.339 322.372C234.726 318.984 240.514 278.327 245.967 264.568C249.568 255.489 254.728 241.931 258.032 229.18C258.466 229.203 258.881 229.214 259.27 229.214C263.054 229.241 264.662 228.422 264.662 228.422C264.662 228.422 264.09 260.255 262.865 273.538C259.901 305.644 268.144 325.074 277.653 337.687C287.161 350.3 303.343 345.509 305.879 336.76C309.58 323.984 294.008 316.55 294.008 316.55C290.508 311.574 291.542 290.647 294.314 271.614C295.875 260.894 297.988 250.775 300.152 244.446C305.789 227.964 319.124 200.722 319.408 177.566C319.5 175.667 319.577 173.582 319.638 171.361C320.072 155.569 319.759 132.86 319.536 120.77C319.449 116.009 320.82 111.308 323.606 107.449C331.624 96.3448 332.552 83.5511 331.779 74.3303Z" fill="#EFE8DA"></path><path d="M331.779 74.3303C328.293 78.3249 324.104 81.9383 320.077 85.2022C313.332 90.6697 304.596 96.4575 296.654 92.9546C292.9 91.3012 290.285 87.8637 287.842 84.5638C282.81 77.7746 277.635 70.6582 276.155 62.3351C273.842 49.3295 280.946 35.8231 281.43 22.9843C291.812 22.9979 296.918 26.3564 296.918 26.3564C296.918 26.3564 315.53 -3.6292 321.998 0.408278C335.721 10.3689 329.417 61.7487 329.417 61.7487C329.417 61.7487 331.156 66.8711 331.779 74.3303Z" fill="#5E3A1A"></path><path d="M51.6071 126.342C51.8706 126.342 52.1364 126.256 52.3594 126.082C52.8886 125.665 52.981 124.898 52.5643 124.368C44.3596 113.909 36.7338 96.877 39.9319 80.4384C42.3147 68.1951 50.3572 58.0721 63.8319 50.3467C64.4153 50.0129 64.618 49.2663 64.2846 48.6821C63.9513 48.0957 63.2058 47.8927 62.6225 48.2287C48.5036 56.3217 40.0647 67.0019 37.54 79.9715C34.1843 97.2176 42.1097 114.992 50.6477 125.875C50.8887 126.181 51.2445 126.342 51.6071 126.342Z" fill="#262626"></path><path d="M243.339 323.592C243.826 323.592 244.285 323.299 244.475 322.816C244.72 322.189 244.412 321.481 243.785 321.235C243.033 320.939 242.371 320.143 241.822 318.871C237.662 309.264 242.202 277.38 247.103 265.019C250.691 255.97 261.609 228.431 262.415 210.894C262.447 210.222 261.927 209.651 261.253 209.62C260.575 209.581 260.01 210.109 259.981 210.784C259.193 227.912 248.389 255.164 244.839 264.121C240.216 275.785 234.865 308.942 239.587 319.845C240.405 321.735 241.52 322.969 242.898 323.511C243.044 323.567 243.195 323.596 243.344 323.596L243.339 323.592Z" fill="#262626"></path><path d="M280.47 93.5794C281.295 92.9862 281.497 91.8561 281.074 90.9313C280.792 90.3178 280.403 89.7833 279.799 89.5058C278.714 89.0028 277.446 89.5599 276.252 89.4855C275.414 89.4336 274.624 89.0705 273.79 88.978C272.813 88.872 271.781 89.1697 271.072 89.8532C270.363 90.5344 270.023 91.6058 270.291 92.5531C270.815 94.4117 273.092 95.3726 274.209 96.947C274.32 97.1026 274.423 97.274 274.581 97.38C274.905 97.5988 275.471 97.177 275.673 97.4883C276.056 97.4996 276.099 97.4996 276.484 97.5109C277.579 96.0538 278.72 94.5538 280.315 93.6764C280.367 93.6471 280.419 93.6132 280.47 93.5771V93.5794Z" fill="#262626"></path><path d="M276.563 96.8545C276.578 98.2371 276.324 99.6514 276.34 101.036C276.344 101.395 275.952 101.706 275.61 101.666C275.218 101.618 274.986 101.316 274.982 100.935C274.966 99.5521 274.518 98.1762 274.502 96.7936C274.497 96.4349 275.322 96.1146 275.664 96.1552C276.056 96.2026 276.288 96.5049 276.292 96.8861L276.563 96.8545Z" fill="#262626"></path><path d="M276.491 101.115C275.66 102.945 273.763 104.115 271.75 103.975C271.23 103.939 270.781 103.409 270.856 102.886C270.932 102.34 271.387 101.952 271.944 101.99C272.027 101.997 272.11 101.999 272.196 102.002C272.41 102.008 272.034 102.017 272.158 102.004C272.198 101.999 272.241 101.997 272.284 101.995C272.462 101.979 272.637 101.948 272.811 101.907C272.851 101.898 272.892 101.887 272.932 101.875C273.067 101.839 272.894 101.878 272.858 101.898C272.939 101.855 273.038 101.835 273.124 101.799C273.288 101.729 273.446 101.648 273.603 101.56C273.725 101.492 273.574 101.575 273.538 101.602C273.57 101.578 273.608 101.555 273.642 101.533C273.712 101.485 273.779 101.433 273.844 101.381C273.984 101.269 274.11 101.147 274.239 101.021C274.329 100.933 274.076 101.215 274.212 101.048C274.239 101.016 274.266 100.982 274.29 100.951C274.342 100.885 274.392 100.818 274.439 100.748C274.493 100.669 274.543 100.59 274.588 100.509C274.603 100.481 274.675 100.351 274.603 100.484C274.525 100.628 274.619 100.443 274.626 100.427C274.842 99.9536 275.385 99.6198 275.905 99.8363C276.374 100.033 276.725 100.61 276.495 101.118L276.491 101.115Z" fill="#262626"></path><path d="M277.022 100.851C277.065 100.939 277.11 101.027 277.157 101.111C277.112 101.034 277.067 100.957 277.024 100.878C277.11 101.025 277.207 101.167 277.313 101.302C277.369 101.372 277.425 101.44 277.486 101.508C277.513 101.537 277.542 101.566 277.569 101.596C277.65 101.684 277.387 101.424 277.508 101.535C277.637 101.65 277.765 101.76 277.905 101.86C277.97 101.907 278.038 101.952 278.108 101.997C278.141 102.02 278.177 102.038 278.211 102.06C277.957 101.893 278.096 101.993 278.162 102.029C278.306 102.103 278.454 102.171 278.608 102.227C278.691 102.259 278.776 102.286 278.862 102.313C278.975 102.349 278.623 102.254 278.781 102.29C278.821 102.299 278.86 102.308 278.9 102.317C279.067 102.354 279.236 102.378 279.407 102.39C279.436 102.39 279.529 102.385 279.553 102.396C279.54 102.39 279.306 102.399 279.441 102.396C279.538 102.394 279.637 102.39 279.734 102.381C280.252 102.333 280.801 102.701 280.844 103.249C280.884 103.775 280.533 104.309 279.977 104.361C277.979 104.546 276.042 103.42 275.18 101.614C274.954 101.142 275.045 99.9694 275.531 99.7935C276.063 99.6018 276.779 100.348 277.02 100.854L277.022 100.851Z" fill="#262626"></path><path d="M244.612 68.7387C243.5 72.395 244.883 76.6783 247.925 78.988C250.966 81.2978 255.457 81.4782 258.673 79.4189C261.889 77.3595 263.609 73.2025 262.794 69.4673C262.794 69.4673 257.745 63.1832 250.943 63.8238C244.142 64.4644 244.612 68.7387 244.612 68.7387Z" fill="#FDB102"></path><path d="M263.983 79.1505C264.499 74.4363 262.366 69.5304 258.344 66.9298C254.058 64.1599 248.351 64.4012 244.186 67.2681C242.954 68.1162 241.792 66.1065 243.015 65.2629C247.817 61.9562 254.585 61.7374 259.512 64.9245C264.177 67.9402 266.906 73.6198 266.301 79.1505C266.141 80.6188 263.819 80.6369 263.983 79.1505Z" fill="#262626"></path><path d="M263.113 69.059C264.133 73.9536 262.518 79.2723 257.602 81.2595C252.771 83.2105 246.962 81.264 244.449 76.6694C243.08 74.1657 242.704 71.1815 243.496 68.4342C243.911 67.002 246.147 67.611 245.733 69.0523C244.249 74.1995 247.969 79.543 253.365 79.6896C255.82 79.7572 258.446 78.8122 259.829 76.6829C261.16 74.6326 261.37 72.0319 260.881 69.6793C260.577 68.2222 262.811 67.5974 263.117 69.0613L263.113 69.059Z" fill="#262626"></path><path d="M254.13 64.6742C256.666 65.5561 258.438 67.7508 258.506 70.2229C258.519 70.6898 258.497 71.186 258.44 71.7341C258.301 73.1123 257.909 74.495 257.044 75.6137C256.179 76.7325 254.79 77.5558 253.278 77.5761C251.569 77.5986 249.95 76.5791 249.044 75.228C248.139 73.8769 247.869 72.2439 247.941 70.6763C248.011 69.1086 248.429 67.5139 249.472 66.2914C250.474 65.1163 252.132 64.3516 253.751 64.5749C253.88 64.593 254.008 64.6291 254.132 64.6719L254.13 64.6742Z" fill="#262626"></path><path d="M308.782 68.5627C309.96 72.1987 308.654 76.5046 305.656 78.8707C302.656 81.2346 298.17 81.4962 294.918 79.4955C291.666 77.4948 289.869 73.3694 290.618 69.6206C290.618 69.6206 295.553 63.2463 302.366 63.7629C309.179 64.2794 308.782 68.5627 308.782 68.5627Z" fill="#FDB102"></path><path d="M287.285 79.3444C286.58 73.8205 289.226 68.1049 293.834 65.008C298.706 61.7329 305.476 61.8524 310.334 65.0711C311.572 65.8921 310.412 67.9041 309.162 67.0763C304.944 64.2817 299.235 64.1689 295.003 67.0132C291.026 69.6883 289.001 74.646 289.602 79.3444C289.791 80.8218 287.472 80.8083 287.285 79.3444Z" fill="#262626"></path><path d="M292.533 69.8146C292.087 72.1694 292.355 74.7769 293.726 76.7956C295.157 78.8978 297.801 79.7775 300.253 79.6669C305.656 79.4233 309.239 73.9784 307.665 68.874C307.224 67.444 309.462 66.8305 309.902 68.256C311.393 73.0919 309.129 78.794 304.476 80.9549C299.931 83.0661 293.796 81.918 291.305 77.2648C289.981 74.7949 289.785 71.9145 290.299 69.1966C290.576 67.7304 292.812 68.3507 292.535 69.8146H292.533Z" fill="#262626"></path><path d="M299.193 64.6719C296.673 65.5989 294.941 67.8274 294.918 70.2996C294.914 70.7665 294.945 71.2627 295.011 71.8108C295.175 73.1867 295.592 74.5626 296.477 75.6656C297.362 76.7685 298.767 77.567 300.276 77.5603C301.986 77.5512 303.587 76.5046 304.468 75.1355C305.348 73.7686 305.589 72.1311 305.49 70.5657C305.391 69.0003 304.945 67.4124 303.88 66.2102C302.857 65.0531 301.186 64.3178 299.569 64.5726C299.441 64.5929 299.312 64.6313 299.191 64.6764L299.193 64.6719Z" fill="#262626"></path><path d="M287.333 122.394C279.597 127.889 268.372 127.102 261.352 120.786C260.142 119.697 261.931 117.917 263.135 119C269.365 124.605 279.27 125.036 286.06 120.213C287.387 119.27 288.648 121.461 287.333 122.394Z" fill="#262626"></path><path d="M318.815 42.8447C314.37 38.6042 309.714 34.5848 304.868 30.8067C304.095 30.2044 303.856 29.1285 304.341 28.2782C307.789 22.2197 312.356 16.8018 317.748 12.3876C318.083 12.1125 318.446 11.8305 318.876 11.7674C320.131 11.5801 320.806 13.1793 321.011 14.4334C322.322 22.4768 321.682 35.8456 321.295 41.8906C321.214 43.1379 319.721 43.7041 318.818 42.8424L318.815 42.8447Z" fill="#F5653A"></path><path d="M252.944 30.0939C254.345 29.5007 254.912 27.818 254.16 26.4963L245.955 12.0877C244.994 10.4005 243.78 8.53061 241.859 8.25318C240.455 8.05017 239.048 8.81707 238.129 9.902C237.21 10.9847 236.697 12.3448 236.233 13.6891C233.6 21.3445 232.138 29.4015 231.915 37.4967C231.888 38.514 231.926 39.6688 233.161 40.1109C234.102 40.4493 235.167 40.1515 235.875 39.4433C239.12 36.1885 248.361 32.036 252.944 30.0984V30.0939Z" fill="#F5653A"></path><path d="M254.039 119.753C247.28 117.931 240.825 115.07 234.938 111.283C233.718 110.498 234.85 108.538 236.08 109.328C241.816 113.018 248.059 115.795 254.643 117.57C256.046 117.949 255.451 120.132 254.041 119.753H254.039Z" fill="#262626"></path><path d="M297.489 117.599C302.302 116.607 306.925 114.919 311.234 112.553C312.511 111.852 313.653 113.807 312.376 114.509C307.905 116.965 303.085 118.754 298.09 119.782C296.671 120.076 296.063 117.892 297.489 117.599Z" fill="#262626"></path><path d="M46.3223 307.503C46.7638 307.503 47.1894 307.264 47.4056 306.844C48.0881 305.527 48.7862 304.077 49.5272 302.541C53.4775 294.351 58.8872 283.136 69.4094 277.093C97.8747 260.749 111.685 237.257 110.453 207.269C110.426 206.595 109.849 206.072 109.185 206.101C108.512 206.128 107.989 206.697 108.016 207.371C109.208 236.375 95.8094 259.121 68.1955 274.975C57.0179 281.392 51.419 293.002 47.3291 301.478C46.5971 302.998 45.9034 304.433 45.2391 305.719C44.9283 306.316 45.1625 307.054 45.7593 307.363C45.9395 307.455 46.1309 307.501 46.3201 307.501L46.3223 307.503Z" fill="#262626"></path><path d="M153.619 241.207C181.112 241.207 201.523 233.608 201.832 233.491C202.46 233.251 202.775 232.545 202.537 231.916C202.298 231.287 201.593 230.969 200.965 231.208C200.501 231.384 153.908 248.702 106.921 230.342C106.292 230.098 105.587 230.407 105.342 231.034C105.096 231.661 105.407 232.369 106.033 232.615C122.587 239.084 139.093 241.207 153.617 241.207H153.619Z" fill="#262626"></path><path d="M138.868 56.1029C125.769 68.8966 116.292 60.1968 104.596 52.3C105.536 47.1438 98.9186 32.0066 95.957 20.9024C104.887 21.7753 111.889 23.4332 114.718 24.5993C115.283 24.8316 115.952 25.1203 116.7 25.4564C126.6 29.9179 150.656 43.1582 138.868 56.1029Z" fill="#5E3A1A"></path><path d="M220.761 146.615C218.342 150.097 214.432 152.179 210.671 154.135C202.228 158.52 193.786 162.905 185.343 167.292C178.771 170.704 171.992 174.182 164.621 174.877C157.252 175.57 149.054 172.816 145.441 166.347C140.932 158.276 144.98 148.167 149.932 140.362C151.491 137.906 153.164 135.425 154.713 132.892C164.049 131.766 172.364 130.167 179.726 128.304C189.606 125.324 198.849 121.679 206.509 118.31C211.671 120.355 216.482 123.394 219.691 127.878C223.574 133.298 224.567 141.14 220.761 146.615Z" fill="#5E3A1A"></path><path d="M319.638 171.361C319.577 173.582 319.501 175.667 319.408 177.566C319.125 200.721 305.789 227.964 300.152 244.446C297.988 250.775 295.875 260.893 294.315 271.614C290.968 270.139 288.146 267.732 286.45 264.387C282.153 255.904 286.299 245.849 289.211 236.793C293.511 223.433 295.004 209.173 293.567 195.209C292.792 187.677 291.463 179.12 296.355 173.348C300.177 168.841 306.843 167.65 312.618 168.877C315.062 169.396 317.39 170.276 319.638 171.361Z" fill="#5E3A1A"></path></g><defs><clipPath id="clip0_16523_975"><rect width="332" height="353" fill="white"></rect></clipPath></defs></svg>