<svg width="104" height="66" viewBox="0 0 104 66" fill="none" xmlns="http://www.w3.org/2000/svg">
<g clip-path="url(#clip0_18511_988)">
<mask id="mask0_18511_988" style="mask-type:luminance" maskUnits="userSpaceOnUse" x="-6" y="-4" width="115" height="74">
<path d="M96.7185 -3.49991L-6 23.1328L6.02768 69.5218L108.746 42.8891L96.7185 -3.49991Z" fill="white"/>
</mask>
<g mask="url(#mask0_18511_988)">
<path d="M101.389 14.8642C101.597 16.278 101.028 17.5455 100.03 18.2843C101.379 19.388 102.504 20.7826 102.469 22.652C102.442 23.9623 101.742 25.0546 100.714 25.6117C102.196 28.5089 99.7178 31.6785 96.5788 32.1382C96.9418 33.9506 96.5858 35.9541 94.8708 36.9414C93.7869 37.5638 92.5307 37.5576 91.5055 37.0353C90.252 40.1873 86.1307 40.932 83.7883 38.3662C82.4727 39.9022 80.5941 40.9397 78.5108 40.3296C77.0638 39.9087 76.0475 38.8401 75.6785 37.5158C74.3331 38.0482 72.7167 37.7701 71.5917 36.7025C71.4498 36.5686 71.3262 36.4251 71.2074 36.2757C70.0571 36.684 68.9081 37.0792 67.8142 37.4953C64.2515 38.8513 60.6701 40.166 57.0879 41.4713C51.171 43.6228 45.2025 45.9888 39.1179 47.7339C38.8559 48.6059 38.2793 49.3138 37.5144 49.7275C38.9969 52.6248 36.5216 55.792 33.3826 56.2517C33.7427 58.0664 33.3853 60.0704 31.6693 61.0561C30.5857 61.6785 29.3295 61.6723 28.3073 61.1493C27.0493 64.3024 22.9273 65.0441 20.5902 62.4801C19.2745 64.0162 17.3948 65.0491 15.31 64.4458C13.8631 64.0249 12.8493 62.954 12.4777 61.6321C11.1349 62.1621 9.51772 61.881 8.39282 60.8134C7.08162 59.5708 6.87602 57.7655 7.30272 56.1153C5.99402 56.209 4.69262 55.8125 3.80889 54.6633C3.01179 53.6319 2.8415 52.253 3.27134 51.0902C0.401776 50.2436 0.122107 45.0482 2.76589 43.1662C1.43882 42.1894 0.570107 40.3757 0.725137 38.7641C0.947297 36.4793 3.40305 36.594 5.30192 36.8324C5.01162 35.0459 5.02922 32.8365 6.33012 31.6568C7.43102 30.6567 8.70352 30.8739 9.84992 31.4813C9.68542 29.785 10.0142 28.0597 11.7263 27.2999C13.4145 26.5463 14.8078 27.4518 15.8554 28.7085C16.3684 26.9961 17.317 25.4579 19.2742 25.1865C21.0944 24.9363 21.9377 26.053 22.6379 27.3711C23.4692 26.0101 24.702 24.9263 26.4076 25.2211C28.5303 25.5881 29.304 27.554 29.584 29.4916C31.3731 28.8745 33.1502 29.6119 34.2101 30.9596C36.3803 29.9853 38.6009 29.1064 40.7608 28.1667C44.322 26.6259 47.8845 25.1024 51.4485 23.5785L62.1452 19.007C63.0344 18.6281 63.9211 18.2275 64.8116 17.8355C64.1711 16.8896 63.8203 15.7282 63.9252 14.6512C64.1447 12.3688 66.6031 12.4812 68.502 12.7195C68.2086 10.9338 68.2293 8.7236 69.5301 7.544C70.6284 6.5461 71.9036 6.76111 73.0523 7.37101C72.8824 5.67294 73.2157 3.94648 74.926 3.18557C76.6111 2.43276 78.0075 3.33743 79.0532 4.59944C79.568 2.88176 80.5166 1.34357 82.4738 1.07222C84.2941 0.822025 85.1332 1.94138 85.8398 3.25941C86.6685 1.8943 87.9028 0.810065 89.6084 1.10493C91.7311 1.47189 92.5007 3.44044 92.7847 5.37536C96.0498 4.2465 99.2858 7.63821 98.1688 11.0134C99.7868 11.6852 101.12 13.0194 101.392 14.8664L101.389 14.8642Z" fill="#F9A2BF"/>
<path d="M5.3586 43.4516C4.3964 42.7279 3.14434 42.676 2.22701 41.829C1.09849 40.7847 0.981418 39.2962 1.01984 37.852C1.02618 37.6111 0.712927 37.5694 0.595257 37.7451C-1.30152 40.5949 1.99762 44.666 5.1584 44.2102C5.4792 44.1637 5.6179 43.6492 5.3571 43.452L5.3586 43.4516Z" fill="black"/>
<path d="M8.693 34.2957C8.0174 34.8809 7.8561 35.9932 8.0059 36.8239C8.2146 37.9806 8.9917 38.8177 9.7232 39.6762C9.9575 39.9505 10.3867 39.5935 10.2149 39.2951C9.7032 38.4019 8.6024 36.4953 9.2732 35.4966C10.0061 34.41 11.5344 36.879 12.0352 37.3665C12.3006 37.6248 12.7237 37.3555 12.6425 37.0113C12.3084 35.5934 10.4378 32.7856 8.693 34.2957Z" fill="black"/>
<path d="M18.3975 29.2383C16.4098 29.0278 15.5785 32.0863 15.9143 33.585C15.9829 33.8927 16.4646 33.9608 16.6013 33.6669C16.9119 33.0073 17.2055 30.3562 18.2471 30.485C19.2356 30.6068 19.2088 33.0275 19.4467 33.7045C19.5574 34.0204 20.0834 34.1792 20.2446 33.8008C20.8448 32.388 20.2521 29.4355 18.3964 29.2402L18.3975 29.2383Z" fill="black"/>
<path d="M28.6011 33.2865C27.2044 32.2447 24.597 33.409 24.4226 35.1373C24.3989 35.3668 24.6753 35.4578 24.8448 35.3772C25.746 34.9521 27.1744 33.1842 28.1182 34.5285C28.8949 35.6353 27.6794 36.7737 27.6953 37.872C27.6999 38.1675 27.9991 38.2909 28.2432 38.183C29.992 37.4041 30.0292 34.3505 28.6011 33.2865Z" fill="black"/>
<path d="M12.3233 45.025C10.4787 44.3913 8.60442 46.0563 8.37682 47.8877C8.12762 49.8955 10.7684 50.6929 12.1659 49.627C12.4556 49.4051 12.4848 48.8695 12.0476 48.7818C11.3037 48.6349 9.53382 49.1161 9.66292 47.8797C9.77112 46.853 11.0729 45.4178 12.1678 45.6413C12.5735 45.7244 12.7079 45.1566 12.3233 45.025Z" fill="black"/>
<path d="M17.335 55.5296C16.3291 55.7792 15.5216 56.6953 14.4125 56.6143C13.1153 56.5183 13.3292 54.6585 13.9132 53.9296C14.2736 53.4804 13.6577 52.8455 13.2612 53.2913C12.2434 54.4391 11.7621 56.5948 13.195 57.6463C14.5413 58.6358 17.2293 57.7267 17.9812 56.3495C18.2189 55.9146 17.8084 55.4116 17.3365 55.5292L17.335 55.5296Z" fill="black"/>
<path d="M15.51 46.3442C14.582 47.4926 15.918 49.4914 17.3301 49.1667C17.6713 49.0878 17.5905 48.5663 17.2472 48.5692C16.8915 48.5737 16.5217 48.0857 16.3999 47.795C16.1514 47.2005 16.4626 46.9507 16.95 46.6887C17.7347 46.2651 18.3453 46.4721 19.1086 46.7927C19.421 46.9239 19.856 46.6883 19.7309 46.3043C19.1297 44.4548 16.4307 45.2041 15.5086 46.3446L15.51 46.3442Z" fill="black"/>
<path d="M17.2287 37.3188C16.5267 37.5614 16.0917 38.2166 16.0069 38.9326C15.8916 39.9134 16.3964 40.6759 16.8978 41.468C17.1364 41.8449 17.6991 41.5155 17.4976 41.121C17.161 40.4648 16.3682 38.3699 17.8265 38.3779C19.0012 38.3844 19.2903 39.7772 19.9636 40.4545C20.2128 40.7058 20.6693 40.5093 20.6627 40.1568C20.6325 38.5406 18.9351 36.728 17.2303 37.3184L17.2287 37.3188Z" fill="black"/>
<path d="M27.1763 41.7619C25.4995 40.1706 23.1526 41.9756 22.8815 43.8742C22.826 44.2651 23.3587 44.5481 23.5711 44.1453C24.0581 43.2213 25.5995 41.2231 26.5594 42.8328C27.375 44.2008 25.7969 45.0024 25.5103 46.1313C25.4509 46.3652 25.6426 46.6537 25.9034 46.6292C26.9158 46.5342 27.6176 45.3775 27.8501 44.4717C28.092 43.5283 27.9015 42.4481 27.1774 41.76L27.1763 41.7619Z" fill="black"/>
<path d="M25.2113 50.3442C24.9035 50.1879 24.5825 50.4003 24.5596 50.7317C24.4921 51.7304 25.2259 52.8818 24.4043 53.7681C23.3436 54.911 22.6665 53.0525 22.232 52.3579C21.9694 51.9378 21.3665 52.2169 21.4551 52.6821C21.6246 53.5827 21.8799 54.7034 22.7501 55.1957C23.4399 55.5848 24.351 55.4634 24.9899 55.033C26.326 54.1313 26.8765 51.1871 25.2109 50.3427L25.2113 50.3442Z" fill="black"/>
<path d="M31.1136 48.9699C30.8756 49.0396 30.7807 49.2971 30.8906 49.5111C31.3053 50.3081 32.6263 50.5703 31.8661 51.7055C31.2365 52.6472 29.9979 52.635 29.0549 52.2445C28.6784 52.0885 28.2093 52.5627 28.5844 52.8738C29.8887 53.9603 32.0121 53.7129 32.9379 52.2348C33.7257 50.9776 32.9544 48.4288 31.1125 48.9718L31.1136 48.9699Z" fill="black"/>
<path d="M30.8161 40.7673C30.606 40.9877 30.7757 41.3091 31.0564 41.3304C31.9672 41.399 33.6867 40.7234 33.8502 42.1009C33.9844 43.2355 33.3089 44.4014 32.428 45.0589C32.1614 45.2589 32.1287 45.7747 32.5387 45.8439C34.4583 46.1742 35.3321 43.1685 34.9813 41.7167C34.571 40.0235 31.9976 39.5229 30.8175 40.767L30.8161 40.7673Z" fill="black"/>
<path d="M26.3169 57.9642C25.6733 58.4692 25.0975 59.0381 24.3513 59.4007C23.9775 59.5822 23.6213 59.708 23.2255 59.5394C22.887 59.3943 22.7017 59.093 22.519 58.7893C22.5329 58.6581 22.4773 58.5178 22.3237 58.4252L22.1678 58.33C21.8258 58.1219 21.4883 58.4806 21.5466 58.8165C21.7626 60.0815 22.7139 61.0967 24.0694 60.8315C25.309 60.5882 26.7106 59.6186 27.0168 58.3554C27.123 57.9195 26.623 57.7253 26.3169 57.9642Z" fill="black"/>
<path d="M6.16729 50.5627C5.16709 50.0132 4.14139 50.4211 3.10808 50.145C2.04198 49.8598 1.2972 47.9008 1.33155 46.9347C1.34452 46.5835 0.802359 46.5231 0.722429 46.8629C0.414649 48.1631 0.706459 50.0354 1.72204 51.0021C2.23835 51.4936 2.84802 51.4935 3.52785 51.5294C4.43809 51.5774 5.33129 51.6649 6.17299 51.2759C6.46459 51.1413 6.42119 50.7027 6.16579 50.5631L6.16729 50.5627Z" fill="black"/>
<path d="M19.2734 61.5231C18.8025 62.1573 18.6429 62.9054 18.0275 63.4574C17.3785 64.0405 16.4739 64.366 15.6061 64.2655C13.7363 64.0468 12.6125 61.9961 13.0107 60.2545C13.1319 59.7221 12.4044 59.2183 12.0115 59.6967C11.1849 60.7055 9.79077 60.7479 8.89597 59.7531C8.13147 58.9031 8.01527 57.566 8.09777 56.4709C8.11717 56.2123 7.70117 56.1016 7.59607 56.3442C6.87837 58.0139 7.03057 60.0947 8.68727 61.1824C9.60677 61.7847 10.746 61.8643 11.6863 61.4545C11.7911 63.4631 13.2211 65.3434 15.353 65.6346C17.3705 65.9107 20.8414 64.0648 20.2164 61.6359C20.0928 61.1591 19.5228 61.1888 19.2734 61.5231Z" fill="black"/>
<path d="M33.3 56.0247C32.9459 55.4672 32.0031 55.8122 32.2012 56.4835C32.5707 57.7358 32.8065 58.8489 32.1393 60.0652C31.3221 61.555 30.1369 60.8413 29.0143 60.1097C28.7043 59.9077 28.2966 60.1378 28.2057 60.4598C27.7239 62.1689 27.014 63.634 24.964 63.5354C24.5961 63.5175 24.532 64.0909 24.8887 64.1707C27.1827 64.6799 28.3473 63.3761 29.0468 61.4573C30.3476 62.2958 31.5462 62.845 32.7778 61.3243C33.9205 59.9113 34.3059 57.6082 33.3008 56.0277L33.3 56.0247Z" fill="black"/>
<path d="M34.2054 29.8476C33.3229 28.7459 31.1215 27.9335 29.9955 29.1396C29.8175 29.3293 29.9587 29.6086 30.203 29.625C31.405 29.7058 32.8192 29.4636 33.2583 30.9164C33.6399 32.1783 32.2808 33.0715 32.1221 34.2677C32.0647 34.7006 32.4593 35.0498 32.8768 34.833C33.7443 34.3831 34.1964 33.2321 34.5087 32.3503C34.8216 31.4651 34.8133 30.6057 34.205 29.8461L34.2054 29.8476Z" fill="black"/>
<path d="M69.5319 12.545C68.1268 11.1193 63.9449 12.7779 63.8427 14.8401C63.6974 15.7983 64.1466 17.3331 64.3189 17.751C65.028 19.4736 66.9883 21.2755 69.0208 20.7022C69.4563 20.5797 69.5646 19.9358 69.1407 19.7203C68.077 19.1793 66.7058 19.112 65.9246 18.0925C65.6664 17.7574 64.8183 15.9799 64.7396 15.1149C65.3054 14.4146 65.9793 13.9958 66.9334 13.7006C67.7218 13.4578 68.5786 13.5532 69.3423 13.2706C69.6476 13.1579 69.7769 12.7926 69.5315 12.5435L69.5319 12.545Z" fill="black"/>
<path d="M83.1323 36.4163C82.7559 36.9829 82.6617 37.6503 82.2846 38.2203C81.7694 38.9984 80.901 39.5187 79.9555 39.5756C79.2512 39.6178 78.2715 39.4315 77.7668 38.8923C76.8617 37.9256 76.9758 36.5942 77.0991 35.3913C77.1489 34.7625 76.0799 34.6265 75.988 35.2598C75.962 35.4372 75.9424 35.6146 75.9258 35.7912C75.8631 36.1297 75.7385 36.4268 75.5665 36.7076C75.3622 36.8084 75.1655 36.9264 74.9353 37.026C74.2413 37.3304 73.5538 37.1289 72.9747 36.6792C72.235 36.1036 71.7566 35.1476 71.7066 34.2017C72.0058 34.0843 72.2797 33.9 72.5112 33.6326C72.7167 33.3942 72.6649 32.9291 72.2963 32.8715C71.1446 32.6883 70.0114 33.0331 69.0149 32.1955C67.8323 31.2019 67.8125 29.3787 68.808 28.2559C69.2595 27.7448 68.8068 27.0294 68.1583 27.1513C67.6362 27.2484 66.8461 27.4787 66.3271 27.3038C65.3041 26.9564 65.5264 26.0979 65.7143 25.4031C66.0018 24.3394 66.6287 23.443 67.3529 22.6314C67.58 22.3779 67.2899 21.9873 66.9832 22.1561C65.4161 23.0187 63.8617 24.9916 64.2063 26.8949C64.4736 28.3699 65.7612 28.7811 67.0438 28.7102C66.5331 29.9992 66.5886 31.4478 67.4728 32.6544C68.1074 33.522 69.4397 34.3029 70.6647 34.3618C70.6456 34.4178 70.6318 34.4756 70.6184 34.5349C68.3186 36.1634 65.5854 37.0524 62.9936 38.1105C60.3236 39.2 57.6663 40.3388 54.9714 41.363C50.1661 43.1913 44.1699 43.5494 40.132 47.0165C40.2234 46.042 39.8071 45.1401 39.1095 44.4371C41.7225 42.93 40.5059 37.1575 36.9831 37.5317C36.2354 37.6107 36.2304 38.7766 36.9944 38.7109C39.553 38.4879 40.324 43.307 37.9102 43.743C37.4226 43.8311 37.4398 44.484 37.7924 44.7084C38.8579 45.3862 39.2571 47.0184 38.4196 48.0285C37.9051 48.6485 37.1378 48.8554 36.3868 49.0389C35.9699 49.1407 36.0066 49.7326 36.3947 49.841C37.8326 50.2451 39.3016 49.2947 39.8779 47.9806C39.9465 47.8256 39.9994 47.6715 40.0399 47.519C40.1133 47.5862 40.2161 47.6249 40.3196 47.6044C41.8367 47.302 43.2346 46.571 44.6704 46.0169C46.0441 45.4884 47.4393 45.0677 48.8622 44.6924C51.5057 43.9942 54.0919 43.2726 56.6328 42.2532C59.2315 41.2093 61.8194 40.1363 64.4122 39.0764C66.5899 38.1863 68.9177 37.4248 70.8705 36.0873C71.7322 37.9171 74.3114 39.6127 76.0251 37.9766C76.3665 39.6016 77.396 40.8566 79.5401 40.9484C81.5938 41.0365 84.9608 38.9446 84.0084 36.5241C83.8539 36.1319 83.3736 36.057 83.1331 36.4193L83.1323 36.4163Z" fill="black"/>
<path d="M95.766 30.3344C95.292 30.1189 94.798 30.5851 95.049 31.0642C95.832 32.5666 95.988 33.8025 94.886 35.1987C93.673 36.7367 92.0794 36.2565 90.9462 34.947C90.5306 34.4676 89.6858 34.9866 89.8779 35.5733C90.4935 37.4415 89.3795 39.1007 87.5245 39.612C87.1958 39.702 87.2725 40.1831 87.6042 40.1912C89.703 40.2437 91.1056 38.7712 91.2877 36.9372C92.7396 37.8275 94.509 37.8074 95.81 36.2992C97.11 34.7911 98.116 31.405 95.766 30.3359V30.3344Z" fill="black"/>
<path d="M87.142 30.3031C86.4016 31.1013 86.5956 32.4294 85.637 33.1023C84.3255 34.0246 83.3295 32.504 83.1379 31.37C83.0709 30.9757 82.5511 31.0818 82.4404 31.3769C81.7564 33.2135 83.4216 34.9945 85.3088 34.7062C87.059 34.439 88.519 32.028 87.7816 30.3813C87.6745 30.1411 87.3051 30.1236 87.1401 30.302L87.142 30.3031Z" fill="black"/>
<path d="M77.8721 28.4407C76.926 28.6493 76.2009 29.1978 75.2885 29.487C74.8895 29.6144 74.3149 29.8304 74.0444 29.398C73.7408 28.912 74.1478 28.2289 74.3904 27.807C74.7083 27.2556 73.8955 26.8425 73.5426 27.3393C72.7762 28.4138 72.2178 30.4571 73.9595 30.9899C75.5294 31.4715 77.5179 30.2778 78.307 28.9948C78.4883 28.7005 78.1762 28.373 77.8706 28.4411L77.8721 28.4407Z" fill="black"/>
<path d="M74.8728 18.0538C73.6341 16.8992 70.6854 17.1485 70.8602 19.3159C71.0131 21.2019 73.2191 22.2173 74.8489 21.6831C75.1452 21.5855 75.0951 21.1454 74.7739 21.1409C73.8099 21.1261 72.7007 20.6192 72.2239 19.7616C71.2814 18.0644 73.875 18.7847 74.58 18.7822C74.9429 18.7807 75.1435 18.3075 74.8732 18.0553L74.8728 18.0538Z" fill="black"/>
<path d="M72.9227 8.27727C71.3136 9.15077 71.091 11.9334 72.8601 12.8132C73.152 12.9577 73.4104 12.7073 73.3697 12.4147C73.2243 11.3787 72.0936 10.0175 73.5762 9.34747C74.7406 8.82057 75.6429 9.89327 76.4241 10.5858C76.5989 10.7415 76.8602 10.6259 76.8707 10.395C76.9725 8.41747 74.5063 7.41687 72.9212 8.27767L72.9227 8.27727Z" fill="black"/>
<path d="M79.5243 9.70395C78.5031 10.24 78.2119 11.6045 78.3271 12.6595C78.3972 13.3066 78.7051 14.6977 79.5986 14.49C79.8686 14.4264 79.9376 14.0016 79.6726 13.8805C79.4551 13.7822 79.4988 12.6238 79.5102 12.3655C79.5409 11.6939 79.769 10.3824 80.779 10.9389C81.7906 11.4951 81.7229 13.3137 82.3275 14.1891C82.5399 14.4962 83.0767 14.4864 83.1657 14.0708C83.5438 12.3009 81.8305 8.49495 79.5217 9.70625L79.5243 9.70395Z" fill="black"/>
<path d="M89.7868 7.20429C87.8014 6.01519 85.8559 8.83129 85.9635 10.5855C85.9821 10.8917 86.4357 11.0613 86.5868 10.7429C86.8941 10.0889 88.2519 7.44429 89.235 8.48319C90.1208 9.41819 89.0914 10.8178 89.134 11.8151C89.1456 12.1008 89.4233 12.3447 89.7167 12.2542C90.6647 11.9606 90.8834 10.7425 90.9136 9.87149C90.9489 8.87799 90.7021 7.75349 89.7872 7.20579L89.7868 7.20429Z" fill="black"/>
<path d="M89.3212 15.7593C88.9619 15.9721 89.1949 16.593 89.6107 16.45C90.6255 16.0992 92.6514 15.3585 93.3318 16.6802C94.0208 18.022 91.6641 18.3522 91.178 19.1929C91.0202 19.4668 91.1888 19.79 91.475 19.8753C92.3776 20.147 93.6327 19.2728 94.1928 18.5995C94.7448 17.9346 94.8358 17.0417 94.4438 16.2737C93.4126 14.2454 90.8989 14.827 89.3223 15.7574L89.3212 15.7593Z" fill="black"/>
<path d="M93.7267 22.5812C93.4173 22.6471 93.2759 23.0395 93.4323 23.2973C93.8481 23.9872 95.5259 24.3801 94.6609 25.3765C94.0389 26.0946 92.8082 26.1489 91.9815 25.8367C91.6232 25.7015 91.4705 26.2357 91.7496 26.4234C93.0428 27.2878 94.9849 27.2118 95.8869 25.783C96.7709 24.3796 95.4039 22.2278 93.7283 22.5808L93.7267 22.5812Z" fill="black"/>
<path d="M86.8302 23.2065C86.3279 23.8984 86.3042 25.0292 85.5055 25.4852C84.3608 26.1378 83.8804 24.9206 83.4365 24.0849C83.2771 23.7848 82.785 23.9236 82.7986 24.2598C82.8644 25.8653 83.8261 27.4761 85.6749 26.9473C87.1602 26.5223 88.2714 24.642 87.5375 23.2002C87.3818 22.896 86.9967 22.9783 86.8306 23.208L86.8302 23.2065Z" fill="black"/>
<path d="M78.4012 19.2559C77.5012 20.9443 79.5688 22.9751 81.2702 22.2851C81.6772 22.1206 81.5338 21.5244 81.0879 21.6192C79.9194 21.8648 78.4958 20.1823 79.8105 19.4202C80.7995 18.8463 81.7593 19.6967 82.6779 19.9993C83.0191 20.1118 83.2547 19.6998 83.1139 19.422C82.232 17.6995 79.3524 17.4746 78.4027 19.2555L78.4012 19.2559Z" fill="black"/>
<path d="M82.7006 0.407255C81.5158 0.077885 80.752 0.866205 79.9872 1.70586C79.2096 2.55837 78.5293 3.72391 78.9645 4.88416C79.0731 5.17348 79.4525 5.17402 79.5535 4.87823C79.8604 3.98183 80.153 3.22793 80.8084 2.50919C81.6023 1.63967 82.0872 1.25709 83.1929 1.88616C83.8857 2.28085 84.4403 2.85816 84.8088 3.56349C85.1193 4.15623 85.1877 4.77823 85.6021 5.30256C85.7661 5.50893 86.1863 5.44465 86.2854 5.20357C87.1122 3.18961 84.4249 0.885495 82.7006 0.407255Z" fill="black"/>
<path d="M97.8319 6.33854C97.0439 5.53939 95.9079 5.05371 94.7819 5.04749C93.8952 5.04274 92.4501 5.27703 92.022 6.13786C91.9673 6.24777 91.9966 6.39172 92.1113 6.45133C92.5703 6.69125 92.7707 6.61856 93.2942 6.49563C94.1279 6.30006 94.9119 6.17503 95.7469 6.46274C96.6869 6.78696 97.4949 7.63046 97.6919 8.61466C97.9179 9.73046 97.2229 10.3462 96.8219 11.2685C96.6719 11.6154 96.9329 11.9992 97.3249 11.9085C99.8049 11.3374 99.1429 7.66586 97.8329 6.33666L97.8319 6.33854Z" fill="black"/>
<path d="M99.0358 18.0124C98.7208 18.0304 98.5258 18.4256 98.7748 18.6592C99.2038 19.0617 99.7138 19.2022 100.212 19.4976C101.158 20.0596 101.906 21.1068 101.862 22.2333C101.831 23.0391 101.391 23.643 100.782 24.1407C100.048 24.741 99.3188 24.6714 98.4908 24.9453C98.1458 25.0586 98.0588 25.4465 98.2908 25.7103C99.9088 27.5577 102.863 24.5073 103.201 22.8531C103.678 20.5052 101.453 17.8675 99.0368 18.0105L99.0358 18.0124Z" fill="black"/>
<path d="M66.0607 32.5654C61.9817 33.3374 58.0429 35.1994 54.1754 36.6696C50.2318 38.1675 46.3568 39.7817 42.4538 41.3743C42.0734 41.5304 42.2203 42.1464 42.6252 42.0047C46.6802 40.5848 50.7298 39.1934 54.7506 37.6723C58.5677 36.2296 62.6946 35.0255 66.2119 32.9266C66.4131 32.8074 66.2756 32.524 66.0603 32.5639L66.0607 32.5654Z" fill="black"/>
<path d="M60.0715 28.8541C57.1268 29.5506 54.3153 30.9895 51.4698 32.0192C48.5845 33.0625 45.6527 33.9694 42.7724 35.0193C42.3484 35.1739 42.5114 35.7842 42.957 35.6942C46.0492 35.0727 49.0778 34.1008 52.0478 33.0451C54.8246 32.0588 57.8766 31.1462 60.3438 29.503C60.6752 29.2815 60.4742 28.7593 60.0715 28.8541Z" fill="black"/>
<path d="M63.0634 21.7382C60.9155 22.1691 58.8341 23.1586 56.8027 23.9645C54.7364 24.7842 52.6675 25.5999 50.5962 26.4065C46.444 28.0255 42.3205 29.7057 38.1935 31.3852C37.791 31.5486 37.9449 32.1978 38.3758 32.051C42.6743 30.5951 46.9461 29.0855 51.1804 27.45C53.2532 26.6493 55.3271 25.8468 57.393 25.0255C59.3795 24.2377 61.5259 23.5296 63.3326 22.3752C63.6745 22.1573 63.4534 21.6562 63.0641 21.7348L63.0634 21.7382Z" fill="black"/>
</g>
</g>
<defs>
<clipPath id="clip0_18511_988">
<rect width="104" height="66" fill="white"/>
</clipPath>
</defs>
</svg>
