<svg width="268" height="208" viewBox="0 0 268 208" fill="none" xmlns="http://www.w3.org/2000/svg">
<g clip-path="url(#clip0_18511_930)">
<mask id="mask0_18511_930" style="mask-type:luminance" maskUnits="userSpaceOnUse" x="-7" y="-47" width="279" height="300">
<path d="M271.65 3.31203L49.2705 -47L-6.99953 201.714L215.38 252.026L271.65 3.31203Z" fill="white"/>
</mask>
<g mask="url(#mask0_18511_930)">
<path d="M260.892 0.947039C241.649 -5.07786 228.069 22.2258 216.12 33.8749C199.862 49.7351 185.176 68.536 164.32 78.617C143.331 88.755 120.9 85.403 98.585 88.694C74.5575 92.252 53.8582 105.522 35.9802 121.464C23.8818 132.252 12.4205 144.942 5.90004 159.99C0.379566 172.749 -4.01735 195.531 10.3004 204.456C25.9771 214.223 47.1026 198.689 60.3831 191.045C79.4797 180.066 97.851 167.802 117.452 157.712C172.388 129.393 244.559 88.811 264.241 25.6368C265.445 21.757 266.339 17.8069 267.016 13.8249C267.876 8.72994 265.485 3.62314 261.012 1.02584C260.937 0.97454 260.888 0.963443 260.888 0.963443L260.892 0.947039Z" fill="#6ECFBC"/>
<mask id="mask1_18511_930" style="mask-type:luminance" maskUnits="userSpaceOnUse" x="0" y="0" width="268" height="208">
<path d="M260.892 0.947039C241.649 -5.07786 228.069 22.2258 216.12 33.8749C199.862 49.7351 185.176 68.536 164.32 78.617C143.331 88.755 120.9 85.403 98.585 88.694C74.5575 92.252 53.8582 105.522 35.9802 121.464C23.8818 132.252 12.4205 144.942 5.90004 159.99C0.379566 172.749 -4.01735 195.531 10.3004 204.456C25.9771 214.223 47.1026 198.689 60.3831 191.045C79.4797 180.066 97.851 167.802 117.452 157.712C172.388 129.393 244.559 88.811 264.241 25.6368C265.445 21.757 266.339 17.8069 267.016 13.8249C267.876 8.72994 265.485 3.62314 261.012 1.02584C260.937 0.97454 260.888 0.963443 260.888 0.963443L260.892 0.947039Z" fill="white"/>
</mask>
<g mask="url(#mask1_18511_930)">
<path d="M10.7166 123.863C12.9763 135.333 15.4311 146.777 18.6552 158.017C21.5129 167.985 25.1712 177.686 29.0192 187.309C32.2505 195.397 35.8417 204.101 43.3234 209.154C49.5227 213.33 56.4213 212.513 61.548 207.126C67.6258 200.73 70.3952 191.381 72.1629 182.959C74.5393 171.694 75.0504 160.076 74.6848 148.605C74.3019 135.992 73.6339 123.194 71.6695 110.724C70.6784 104.452 69.4386 97.986 66.7189 92.201C65.7184 90.08 64.4813 87.939 62.7191 86.369C61.5721 85.351 59.0566 83.61 57.4362 84.381C56.356 84.895 55.242 87.003 54.6771 87.978C53.8134 89.437 53.1605 91.029 52.6713 92.659C51.6908 96.003 51.5016 99.579 51.7663 103.05C52.377 111.08 55.1578 118.876 58.4123 126.177C61.4953 133.095 65.1713 139.75 69.0756 146.233C72.98 152.716 76.7484 158.583 81.5309 164.075C86.3134 169.568 92.5899 175.382 100.119 176.723C107.648 178.065 115.136 173.505 119.585 167.309C124.433 160.566 126.006 152.015 126.468 143.883C126.994 134.56 126.028 125.21 124.828 115.979C123.731 107.512 122.68 99.073 121.794 90.585C120.842 81.324 119.658 71.873 116.282 63.131C114.674 58.977 112.55 55.051 109.815 51.5374C109.4 51.0127 108.663 50.846 108.162 51.3873C103.383 56.457 103.719 64.407 104.733 70.805C106.109 79.559 109.101 88.023 112.472 96.178C118.044 109.671 124.725 123.589 134.589 134.47C139.246 139.607 145.796 145.12 153.218 144.353C161.553 143.499 167.164 135.516 169.759 128.229C173.221 118.485 173.113 107.623 172.389 97.432C171.784 88.921 170.439 80.484 169.566 72.016C168.693 63.549 167.826 55.737 165.8 47.8009C164.002 40.7605 161.222 32.6539 155.082 28.2151C153.778 27.2826 152.386 26.5886 150.88 26.0928C150.191 25.8679 149.623 26.5493 149.604 27.1653C149.474 31.9257 150.515 36.7615 151.624 41.3715C153.216 47.9518 155.336 54.41 157.782 60.718C162.844 73.804 169.263 87.127 178.688 97.668C185.368 105.123 195.413 111.704 205.237 105.794C218.008 98.121 219.57 79.953 219.249 66.613C219.023 56.655 217.497 46.6607 214.81 37.0763C212.65 29.3511 209.758 21.2878 204.76 14.9193C204.492 14.5829 203.992 14.2804 203.553 14.4738C200.504 15.8516 200.597 19.8527 200.937 22.6865C201.593 28.1588 203.553 33.4955 205.678 38.5594C210.922 51.0659 218.126 63.585 227.748 73.257C231.394 76.925 235.83 80.599 241.002 81.786C246.173 82.973 250.618 80.826 253.583 76.776C259.52 68.643 256.758 56.732 254.473 47.8072C252.911 41.6991 251.15 35.7871 248.788 29.9459C245.843 22.6461 242.537 15.4198 238.528 8.63753C236.75 5.61633 234.802 2.66003 232.471 0.0305276C230.866 -1.77987 228.869 -3.67907 226.447 -4.31307C225.472 -4.56817 224.506 -4.56257 223.535 -4.30007C223.093 -4.17587 222.762 -3.69957 222.796 -3.24377C223.422 5.25413 228.349 12.6923 234.188 18.6137C240.027 24.5351 247.537 29.7663 255.421 33.1179C256.663 33.6401 257.648 31.7954 256.41 31.2569C249.012 28.1185 242.175 23.4876 236.437 17.8819C230.699 12.2762 225.517 4.97013 224.904 -3.35267L224.166 -2.29637C226.093 -2.82527 227.974 -1.40037 229.334 -0.17967C231.604 1.88463 233.416 4.44853 235.075 7.01183C239.04 13.1469 242.215 19.8095 245.09 26.5075C247.075 31.1262 249.045 35.8104 250.355 40.6727C252.787 49.6311 256.199 59.431 254.558 68.812C253.58 74.432 249.569 80.365 243.28 80.01C238.81 79.757 234.747 76.787 231.506 73.918C222.143 65.614 215.285 54.155 209.948 42.9714C207.298 37.4098 204.899 31.5775 203.559 25.554C203.11 23.5055 201.764 17.5841 204.2 16.4811L202.993 16.0356C207.282 21.503 209.899 28.1946 211.957 34.7765C214.467 42.8566 216.047 51.2432 216.776 59.661C217.505 68.079 217.446 76.181 215.832 84.224C214.534 90.65 212.172 97.283 207.164 101.767C203.621 104.946 199.108 106.785 194.34 105.792C189.573 104.8 185.228 101.405 181.772 97.883C172.415 88.34 166.135 75.617 161.104 63.382C158.318 56.601 155.918 49.6313 154.085 42.5142C152.805 37.5208 151.567 32.2615 151.708 27.0727L150.433 28.1453C157.368 30.4381 160.723 38.2095 162.748 44.6292C165.111 52.1419 166.187 60.018 167.037 67.826C168.857 84.434 172.343 101.591 169.974 118.302C168.771 126.817 165.514 136.797 157.282 140.999C150.544 144.454 143.637 140.359 138.718 135.697C128.794 126.301 122.295 113.252 116.773 100.907C113.082 92.646 109.759 84.123 107.729 75.29C106.156 68.473 104.313 58.511 109.701 52.8037L108.048 52.6537C119.302 67.054 118.93 86.577 121.096 103.866C123.177 120.464 126.872 138.065 122.863 154.646C120.946 162.586 116.287 170.853 108.277 173.917C101.116 176.656 94.031 172.968 88.6479 168.305C82.7202 163.156 78.0091 156.662 73.8449 150.034C70.3775 144.512 67.0544 138.884 64.0415 133.102C59.9515 125.233 56.2749 116.906 54.5524 108.16C53.0422 100.53 53.2275 92.026 58.7266 85.982L57.7273 86.29C62.0272 86.764 64.2847 91.547 65.6636 95.116C67.8376 100.725 68.9536 106.749 69.8186 112.665C71.3834 123.478 71.9205 134.42 72.4323 145.321C72.944 156.223 72.7253 166.701 71.0621 177.248C69.6906 185.897 67.5193 195.038 62.5959 202.418C60.7234 205.216 58.259 207.967 55.0522 209.206C51.8454 210.444 48.2769 209.706 45.288 207.927C37.8567 203.489 34.3251 194.902 31.2378 187.243C27.3749 177.685 23.742 168.024 20.8531 158.118C17.5097 146.645 15.0086 134.948 12.7025 123.227C12.4328 121.908 10.4469 122.545 10.7002 123.86L10.7166 123.863Z" fill="#8F59FF"/>
</g>
</g>
</g>
<defs>
<clipPath id="clip0_18511_930">
<rect width="268" height="208" fill="white"/>
</clipPath>
</defs>
</svg>
